<svg id="SvgjsSvg1059" xmlns="http://www.w3.org/2000/svg" version="1.1" xmlns:xlink="http://www.w3.org/1999/xlink" xmlns:svgjs="http://svgjs.com/svgjs" width="236" height="324" viewBox="0 0 236 324"><title>6</title><desc>Created with Avocode.</desc><defs id="SvgjsDefs1060"></defs><path id="SvgjsPath1061" d="M755.253 4776.98L824.2370000000001 4677H740.73L643.607 4824.03C631.807 4841.679999999999 625 4863.849999999999 625 4888.28C625 4953.88 672.653 5000.03 742.999 5000.03C812.8910000000001 5000.03 860.998 4953.88 860.998 4888.28C860.998 4826.75 818.337 4781.96 755.253 4776.98ZM742.999 4932.16C718.491 4932.16 697.615 4916.33 697.615 4888.28C697.615 4860.23 718.491 4844.389999999999 742.999 4844.389999999999C767.053 4844.389999999999 788.383 4860.679999999999 788.383 4888.28C788.383 4915.88 767.053 4932.16 742.999 4932.16Z " fill="#e74c3c" fill-opacity="1" transform="matrix(1,0,0,1,-625,-4677)"></path></svg>