<svg id="SvgjsSvg1000" xmlns="http://www.w3.org/2000/svg" version="1.1" xmlns:xlink="http://www.w3.org/1999/xlink" xmlns:svgjs="http://svgjs.com/svgjs" width="472" height="647" viewBox="0 0 472 647"><title>6</title><desc>Created with Avocode.</desc><defs id="SvgjsDefs1001"></defs><path id="SvgjsPath1007" d="M1510.506 9553.96L1648.4740000000002 9354H1481.46L1287.214 9648.06C1263.614 9683.359999999999 1250 9727.699999999999 1250 9776.56C1250 9907.76 1345.306 10000.06 1485.998 10000.06C1625.7820000000002 10000.06 1721.996 9907.76 1721.996 9776.56C1721.996 9653.5 1636.674 9563.92 1510.506 9553.96ZM1485.998 9864.32C1436.982 9864.32 1395.23 9832.66 1395.23 9776.56C1395.23 9720.46 1436.982 9688.779999999999 1485.998 9688.779999999999C1534.106 9688.779999999999 1576.766 9721.359999999999 1576.766 9776.56C1576.766 9831.76 1534.106 9864.32 1485.998 9864.32Z " fill="#e74c3c" fill-opacity="1" transform="matrix(1,0,0,1,-1250,-9354)"></path></svg>