<svg id="SvgjsSvg1017" xmlns="http://www.w3.org/2000/svg" version="1.1" xmlns:xlink="http://www.w3.org/1999/xlink" xmlns:svgjs="http://svgjs.com/svgjs" width="57" height="53" viewBox="0 0 57 53"><title>analitics</title><desc>Created with Avocode.</desc><defs id="SvgjsDefs1018"><linearGradient id="SvgjsLinearGradient1020" gradientUnits="userSpaceOnUse" x1="178.4855" y1="1251.95" x2="178.4855" y2="1199.8"><stop id="SvgjsStop1021" stop-opacity="1" stop-color="#57d781" offset="0"></stop><stop id="SvgjsStop1022" stop-opacity="1" stop-color="#25adff" offset="1"></stop></linearGradient></defs><path id="SvgjsPath1019" d="M201.036 1199.8H155.934C152.663 1199.8 150 1202.46 150 1205.73V1246.02C150 1249.29 152.663 1251.95 155.934 1251.95H201.036C204.308 1251.95 206.971 1249.29 206.971 1246.02V1205.73C206.971 1202.46 204.308 1199.8 201.036 1199.8ZM155.934 1202.17H201.036C203 1202.17 204.597 1203.77 204.597 1205.73V1209.28H152.37400000000002V1205.73C152.37400000000002 1203.77 153.97100000000003 1202.17 155.93400000000003 1202.17ZM201.036 1249.58H155.934C153.971 1249.58 152.374 1247.98 152.374 1246.02V1211.65H204.59699999999998V1246.02C204.59699999999998 1247.98 202.99999999999997 1249.58 201.03599999999997 1249.58ZM155.934 1204.54C156.59 1204.54 157.121 1205.07 157.121 1205.73C157.121 1206.38 156.59 1206.91 155.934 1206.91C155.279 1206.91 154.748 1206.38 154.748 1205.73C154.748 1205.07 155.279 1204.54 155.934 1204.54ZM160.682 1204.54C161.338 1204.54 161.869 1205.07 161.869 1205.73C161.869 1206.38 161.338 1206.91 160.682 1206.91C160.027 1206.91 159.49499999999998 1206.38 159.49499999999998 1205.73C159.49499999999998 1205.07 160.027 1204.54 160.682 1204.54ZM165.43 1204.54C166.085 1204.54 166.616 1205.07 166.616 1205.73C166.616 1206.38 166.085 1206.91 165.43 1206.91C164.774 1206.91 164.243 1206.38 164.243 1205.73C164.243 1205.07 164.774 1204.54 165.43 1204.54ZM167.803 1218.76C167.148 1218.76 166.61599999999999 1219.29 166.61599999999999 1219.95V1221.13C161.38 1221.13 157.12099999999998 1225.39 157.12099999999998 1230.6200000000001C157.12099999999998 1235.8400000000001 161.38 1240.1000000000001 166.61599999999999 1240.1000000000001C171.85299999999998 1240.1000000000001 176.112 1235.8400000000001 176.112 1230.6200000000001H177.299C177.954 1230.6200000000001 178.485 1230.0800000000002 178.485 1229.43C178.485 1223.55 173.693 1218.76 167.80300000000003 1218.76ZM166.616 1237.73C162.69000000000003 1237.73 159.495 1234.54 159.495 1230.6200000000001C159.495 1226.7 162.69 1223.5000000000002 166.616 1223.5000000000002V1229.4300000000003C166.616 1230.0800000000004 167.14800000000002 1230.6200000000003 167.80300000000003 1230.6200000000003H173.73800000000003C173.73800000000003 1234.5400000000004 170.54300000000003 1237.7300000000002 166.61600000000004 1237.7300000000002ZM168.99 1228.24V1221.22C172.622 1221.74 175.50400000000002 1224.6200000000001 176.026 1228.24ZM198.663 1221.13H184.42000000000002C183.76500000000001 1221.13 183.233 1221.66 183.233 1222.3200000000002C183.233 1222.9700000000003 183.76500000000001 1223.5000000000002 184.42000000000002 1223.5000000000002H198.663C199.318 1223.5000000000002 199.85000000000002 1222.9700000000003 199.85000000000002 1222.3200000000002C199.85000000000002 1221.66 199.318 1221.13 198.663 1221.13ZM198.663 1228.24H184.42000000000002C183.76500000000001 1228.24 183.233 1228.78 183.233 1229.43C183.233 1230.0800000000002 183.76500000000001 1230.6200000000001 184.42000000000002 1230.6200000000001H198.663C199.318 1230.6200000000001 199.85000000000002 1230.0800000000002 199.85000000000002 1229.43C199.85000000000002 1228.78 199.318 1228.24 198.663 1228.24ZM198.663 1235.36H184.42000000000002C183.76500000000001 1235.36 183.233 1235.8899999999999 183.233 1236.54C183.233 1237.2 183.76500000000001 1237.73 184.42000000000002 1237.73H198.663C199.318 1237.73 199.85000000000002 1237.2 199.85000000000002 1236.54C199.85000000000002 1235.8899999999999 199.318 1235.36 198.663 1235.36Z " fill="url(#SvgjsLinearGradient1020)" transform="matrix(1,0,0,1,-150,-1199)"></path></svg>