<svg id="SvgjsSvg1023" xmlns="http://www.w3.org/2000/svg" version="1.1" xmlns:xlink="http://www.w3.org/1999/xlink" xmlns:svgjs="http://svgjs.com/svgjs" width="44" height="58" viewBox="0 0 44 58"><title>chess</title><desc>Created with Avocode.</desc><defs id="SvgjsDefs1024"><linearGradient id="SvgjsLinearGradient1026" gradientUnits="userSpaceOnUse" x1="741.264081514027" y1="1254.16" x2="741.264081514027" y2="1197.59"><stop id="SvgjsStop1027" stop-opacity="1" stop-color="#57d781" offset="0"></stop><stop id="SvgjsStop1028" stop-opacity="1" stop-color="#25adff" offset="1"></stop></linearGradient></defs><path id="SvgjsPath1025" d="M751.234 1225.58C752.88 1225.1299999999999 754.6370000000001 1225.52 755.9480000000001 1226.62L755.9760000000001 1226.6399999999999C757.4550000000002 1227.9099999999999 759.7980000000001 1227.85 761.1930000000001 1226.53C763.3130000000001 1224.57 763.4810000000001 1221.29 761.5840000000001 1219.11L757.734 1214.6799999999998C756.618 1213.3899999999999 755.139 1212.4699999999998 753.493 1212.0499999999997C753.2700000000001 1211.9899999999998 753.1590000000001 1211.7999999999997 753.187 1211.5699999999997L753.493 1209.7499999999998C753.605 1209.1599999999999 753.354 1208.5499999999997 752.8520000000001 1208.2099999999998C752.378 1207.84 751.7360000000001 1207.7899999999997 751.1780000000001 1208.0699999999997L742.8640000000001 1212.3299999999997C742.8370000000001 1212.3299999999997 742.8090000000002 1212.3599999999997 742.7810000000002 1212.3599999999997C737.5640000000002 1215.5499999999997 734.9970000000002 1221.7099999999996 736.3640000000001 1227.7099999999996L736.8660000000001 1229.9199999999996C737.676 1233.5099999999995 737.7030000000001 1237.2599999999995 736.8940000000001 1240.8499999999997L736.2810000000001 1243.5399999999997C736.1410000000001 1244.1299999999997 736.2810000000001 1244.6599999999996 736.671 1245.1099999999997C737.0340000000001 1245.5799999999997 737.5920000000001 1245.7799999999997 738.178 1245.7799999999997H740.186C740.3820000000001 1245.7799999999997 740.5490000000001 1245.9799999999998 740.577 1246.1499999999996C740.577 1246.2599999999995 740.549 1246.4299999999996 740.493 1246.4499999999996C740.465 1246.4799999999996 740.3820000000001 1246.6199999999997 740.2420000000001 1246.6199999999997H737.3410000000001C736.1970000000001 1246.6199999999997 735.1930000000001 1247.3799999999997 734.8860000000001 1248.4999999999998L734.2160000000001 1251.0499999999997C734.0210000000001 1251.7999999999997 734.1880000000001 1252.5899999999997 734.6630000000001 1253.1999999999998C735.1370000000002 1253.8199999999997 735.8620000000001 1254.1599999999999 736.6710000000002 1254.1599999999999H758.4040000000001C759.2120000000001 1254.1599999999999 759.9380000000001 1253.79 760.4120000000001 1253.1799999999998C760.8860000000002 1252.5299999999997 761.0540000000002 1251.7499999999998 760.8310000000001 1250.9599999999998L760.1050000000001 1248.4099999999999C759.7980000000001 1247.32 758.7940000000001 1246.59 757.6780000000001 1246.59H755.1110000000001C754.916 1246.59 754.7490000000001 1246.4299999999998 754.7210000000001 1246.28C754.7210000000001 1246.17 754.7490000000001 1246 754.8050000000001 1245.95C754.8330000000001 1245.92 754.916 1245.75 755.056 1245.75H757.009C758.013 1245.75 758.878 1245.02 758.961 1243.99C759.492 1236.53 756.702 1230.04 751.122 1225.64C751.0939999999999 1225.64 751.0939999999999 1225.64 751.0939999999999 1225.6100000000001C751.15 1225.5800000000002 751.2059999999999 1225.5800000000002 751.2339999999999 1225.5800000000002ZM749.811 1227.48C754.749 1231.38 757.2320000000001 1237.09 756.813 1243.82H755.111C754.414 1243.82 753.717 1244.07 753.242 1244.6C752.7679999999999 1245.1399999999999 752.5169999999999 1245.86 752.601 1246.56C752.712 1247.85 753.856 1248.86 755.167 1248.86H757.734C757.873 1248.86 758.013 1248.9199999999998 758.041 1249.06L758.7660000000001 1251.61C758.7940000000001 1251.75 758.738 1251.8 758.71 1251.86C758.682 1251.9199999999998 758.599 1251.9399999999998 758.4590000000001 1251.9399999999998H736.7270000000001C736.5880000000001 1251.9399999999998 736.5040000000001 1251.8899999999999 736.4760000000001 1251.86C736.4480000000001 1251.8 736.3920000000002 1251.7199999999998 736.4200000000001 1251.58L737.09 1249.06C737.118 1248.9199999999998 737.2570000000001 1248.86 737.3960000000001 1248.86H740.2980000000001C740.9950000000001 1248.86 741.6930000000001 1248.53 742.1670000000001 1247.99C742.6410000000002 1247.46 742.8920000000002 1246.79 742.8090000000002 1246.09C742.6970000000002 1244.8 741.5530000000002 1243.85 740.2420000000002 1243.85H738.5400000000002L739.0700000000002 1241.4099999999999C739.9350000000002 1237.5199999999998 739.9350000000002 1233.37 739.0420000000001 1229.4699999999998L738.5400000000002 1227.2599999999998C737.3960000000002 1222.2199999999998 739.5450000000002 1217.0099999999998 743.9250000000002 1214.2899999999997L751.1220000000002 1210.5599999999997L751.0110000000002 1211.2099999999998C750.7870000000001 1212.5499999999997 751.6240000000003 1213.84 752.9360000000001 1214.1799999999998C754.1630000000001 1214.4799999999998 755.2230000000002 1215.1599999999999 756.0600000000002 1216.1399999999999L759.9100000000002 1220.59C761.0260000000002 1221.8799999999999 760.9140000000002 1223.79 759.6870000000002 1224.9399999999998C759.1010000000002 1225.4999999999998 758.0130000000003 1225.4999999999998 757.3710000000002 1224.9599999999998L757.3160000000003 1224.9399999999998C755.4460000000003 1223.37 752.9630000000003 1222.8099999999997 750.6200000000002 1223.4499999999998C749.7830000000002 1223.6699999999998 749.1410000000002 1224.3799999999999 748.9740000000003 1225.2399999999998C748.8350000000003 1226.0799999999997 749.1410000000003 1226.9799999999998 749.8110000000003 1227.4799999999998ZM735.053 1241.3C735.053 1240.68 734.551 1240.18 733.965 1240.18H722.081C721.913 1240.18 721.83 1240.0900000000001 721.83 1239.9V1237.96C721.83 1237.82 721.885 1237.71 721.9970000000001 1237.66L723.782 1236.8400000000001C724.647 1236.45 725.205 1235.64 725.2610000000001 1234.69C725.3170000000001 1233.73 724.8700000000001 1232.8600000000001 724.061 1232.3600000000001L722.081 1231.16C721.969 1231.0700000000002 721.913 1230.96 721.941 1230.8200000000002L725.177 1213.6200000000001C725.596 1211.4 725.177 1209.16 723.9780000000001 1207.2600000000002C723.3080000000001 1206.1900000000003 722.9730000000001 1204.9900000000002 722.9730000000001 1203.7300000000002V1200.1100000000004C722.9730000000001 1199.9400000000003 723.224 1199.7800000000004 723.392 1199.7800000000004C723.5590000000001 1199.7800000000004 723.782 1199.9400000000005 723.782 1200.1100000000004V1200.9800000000002C723.782 1202.3800000000003 724.6750000000001 1203.4700000000003 726.07 1203.4700000000003H726.349C727.744 1203.4700000000003 729.0550000000001 1202.3800000000003 729.0550000000001 1200.9800000000002V1200.1100000000004C729.0550000000001 1199.9400000000003 729.167 1199.7800000000004 729.3340000000001 1199.7800000000004C729.5010000000001 1199.7800000000004 729.613 1199.9200000000005 729.613 1200.1100000000004V1200.9800000000002C729.613 1202.3800000000003 730.729 1203.5000000000002 732.124 1203.5000000000002C733.519 1203.5000000000002 734.635 1202.3500000000001 734.635 1200.9800000000002V1200.1100000000004C734.635 1199.9400000000003 734.746 1199.7800000000004 734.914 1199.7800000000004C735.081 1199.7800000000004 735.193 1199.9200000000005 735.193 1200.1100000000004V1200.9800000000002C735.193 1202.3800000000003 736.336 1203.4700000000003 737.731 1203.4700000000003H738.01C739.405 1203.4700000000003 740.7719999999999 1202.3800000000003 740.7719999999999 1200.9800000000002V1200.1100000000004C740.7719999999999 1199.9400000000003 740.8839999999999 1199.7800000000004 741.0509999999999 1199.7800000000004C741.2189999999999 1199.7800000000004 741.3299999999999 1199.9200000000005 741.3299999999999 1200.1100000000004V1203.7300000000002C741.3299999999999 1204.9900000000002 740.9119999999999 1206.2200000000003 740.242 1207.2600000000002C739.5169999999999 1208.38 739.015 1209.6900000000003 738.875 1211.0400000000002C738.819 1211.66 739.238 1212.1900000000003 739.824 1212.2400000000002C740.437 1212.3000000000002 740.967 1211.8800000000003 741.0229999999999 1211.2600000000002C741.1349999999999 1210.2500000000002 741.5529999999999 1209.2700000000002 742.1109999999999 1208.4300000000003C743.0039999999999 1207.0300000000002 743.5619999999999 1205.3800000000003 743.5619999999999 1203.7000000000003V1200.1100000000004C743.5619999999999 1198.7100000000003 742.4459999999999 1197.5900000000004 741.0509999999999 1197.5900000000004C739.656 1197.5900000000004 738.54 1198.7400000000005 738.54 1200.1100000000004V1200.9800000000002C738.54 1201.1500000000003 738.206 1201.2300000000002 738.01 1201.2300000000002H737.731C737.564 1201.2300000000002 737.424 1201.1500000000003 737.424 1200.9800000000002V1200.1100000000004C737.424 1198.7100000000003 736.308 1197.5900000000004 734.914 1197.5900000000004C733.519 1197.5900000000004 732.403 1198.7400000000005 732.403 1200.1100000000004V1200.9800000000002C732.403 1201.1500000000003 732.291 1201.3200000000002 732.124 1201.3200000000002C731.956 1201.3200000000002 731.845 1201.18 731.845 1200.9800000000002V1200.1100000000004C731.845 1198.7100000000003 730.729 1197.5900000000004 729.3340000000001 1197.5900000000004C727.9390000000001 1197.5900000000004 726.8230000000001 1198.7400000000005 726.8230000000001 1200.1100000000004V1200.9800000000002C726.8230000000001 1201.1500000000003 726.5160000000001 1201.2300000000002 726.349 1201.2300000000002H726.07C725.903 1201.2300000000002 725.735 1201.1500000000003 725.735 1200.9800000000002V1200.1100000000004C725.735 1198.7100000000003 724.619 1197.5900000000004 723.224 1197.5900000000004C721.83 1197.5900000000004 720.714 1198.7400000000005 720.714 1200.1100000000004V1203.7300000000002C720.714 1205.4100000000003 721.1880000000001 1207.0300000000002 722.081 1208.4600000000003C722.9730000000001 1209.8900000000003 723.308 1211.5700000000002 723.001 1213.2200000000003L719.765 1230.4300000000003C719.5699999999999 1231.4600000000003 720.044 1232.5300000000002 720.937 1233.0600000000004L722.918 1234.2700000000004C723.057 1234.3500000000004 723.085 1234.4900000000005 723.085 1234.5700000000004C723.085 1234.6600000000003 723.029 1234.8000000000004 722.89 1234.8500000000004L721.104 1235.6700000000003C720.1840000000001 1236.0900000000004 719.6260000000001 1236.9800000000002 719.6260000000001 1237.9900000000002V1239.9300000000003C719.6260000000001 1241.3300000000004 720.714 1242.4500000000003 722.109 1242.4500000000003H733.965C734.551 1242.4200000000003 735.053 1241.9100000000003 735.053 1241.3000000000002Z " fill="url(#SvgjsLinearGradient1026)" transform="matrix(1,0,0,1,-719,-1197)"></path></svg>