<svg id="SvgjsSvg1008" xmlns="http://www.w3.org/2000/svg" version="1.1" xmlns:xlink="http://www.w3.org/1999/xlink" xmlns:svgjs="http://svgjs.com/svgjs" width="252" height="122" viewBox="0 0 252 122"><title>Gazprom</title><desc>Created with Avocode.</desc><defs id="SvgjsDefs1009"></defs><path id="SvgjsPath1010" d="M702.835 6103.76H718.8280000000001V6109.030000000001H711.2200000000001V6146.000000000001H702.8350000000002V6103.760000000001M728.31 6130.14L729.747 6109.030000000001H730.228L731.665 6130.14ZM727.234 6146L728.0110000000001 6134.78H731.964L732.745 6146H740.951L736.578 6103.76H723.3969999999999L719.0239999999999 6146ZM752.96 6131.22V6139.18C752.96 6140.25 753.7850000000001 6140.56 754.2660000000001 6140.56C755.0570000000001 6140.56 755.6070000000001 6139.910000000001 755.6070000000001 6139.18V6129.35C755.6070000000001 6128.030000000001 755.3660000000001 6126.58 752.238 6126.58H748.8340000000001V6121.94H752.3750000000001C754.7470000000001 6121.94 755.6070000000001 6121.389999999999 755.6070000000001 6118.79V6110.41C755.6070000000001 6109.68 755.0570000000001 6109.03 754.2660000000001 6109.03C753.7850000000001 6109.03 752.96 6109.3 752.96 6110.41V6117.3H744.571V6111.31C744.571 6108.370000000001 744.9150000000001 6103.76 750.794 6103.76H757.7379999999999C763.617 6103.76 763.9949999999999 6108.37 763.9949999999999 6111.31V6118.06C763.9949999999999 6122.67 760.7979999999999 6123.910000000001 758.2879999999999 6123.81V6124.22C763.9269999999999 6124.09 763.9949999999999 6128.45 763.9949999999999 6129.9400000000005V6138.450000000001C763.9949999999999 6141.43 763.6169999999998 6146.000000000001 757.7379999999999 6146.000000000001H750.794C744.915 6146.000000000001 744.571 6141.430000000001 744.571 6138.450000000001V6131.220000000001H752.96M769.496 6103.76H788.92V6146H780.5319999999999V6109.03H777.8849999999999V6146H769.4959999999999V6103.76M802.81 6126.99V6109.03H803.91C804.803 6109.03 805.457 6109.79 805.457 6111.139999999999V6124.879999999999C805.457 6126.23 804.803 6126.989999999999 803.91 6126.989999999999ZM802.81 6146V6131.63H807.6229999999999C813.467 6131.63 813.8449999999999 6127.06 813.8449999999999 6124.09V6111.31C813.8449999999999 6108.370000000001 813.4669999999999 6103.76 807.6229999999999 6103.76H794.4209999999999V6146ZM830.382 6139.18C830.382 6139.91 829.832 6140.56 829.0409999999999 6140.56C828.56 6140.56 827.7349999999999 6140.25 827.7349999999999 6139.18V6110.41C827.7349999999999 6109.3 828.56 6109.03 829.0409999999999 6109.03C829.832 6109.03 830.382 6109.679999999999 830.382 6110.41ZM825.569 6146H832.548C838.392 6146 838.77 6141.43 838.77 6138.45V6111.3099999999995C838.77 6108.37 838.3919999999999 6103.759999999999 832.548 6103.759999999999H825.569C819.7239999999999 6103.759999999999 819.346 6108.369999999999 819.346 6111.3099999999995V6138.45C819.346 6141.429999999999 819.724 6146 825.569 6146ZM866.067 6103.76H877V6146H868.612V6119.52H868.302L863.97 6146H857.2660000000001L852.969 6119.52H852.6590000000001V6146H844.2710000000001V6103.76H855.1690000000001L860.6360000000001 6133.47L866.0670000000001 6103.76M691.964 6046.02C689.3960000000001 6034.700000000001 682.96 6025.490000000001 682.0730000000001 6024C680.6700000000001 6026.11 675.5370000000001 6034.25 672.9280000000001 6043.25C670.0780000000001 6053.32 669.6590000000001 6062.25 670.6420000000002 6071.01C671.6180000000002 6079.81 675.3070000000001 6088.84 675.3070000000001 6088.84C677.2670000000002 6093.55 680.2030000000001 6098.64 682.1140000000001 6101.13C684.9160000000002 6097.46 691.3550000000001 6086.52 693.3630000000002 6072.26C694.4800000000001 6064.3 694.5290000000002 6057.34 691.9640000000002 6046.02ZM682.073 6098.29C680.811 6095.9 678.852 6091.37 678.6659999999999 6084.31C678.6179999999999 6077.52 681.323 6071.67 682.1139999999999 6070.46C682.819 6071.67 685.1499999999999 6076.76 685.4279999999999 6083.72C685.6169999999998 6090.5 683.3759999999999 6095.87 682.0729999999999 6098.29ZM691.218 6065.23C691.122 6069.5599999999995 690.6089999999999 6074.129999999999 689.956 6076.86C690.19 6072.16 689.629 6065.54 688.557 6060.349999999999C687.484 6055.19 684.448 6046.539999999999 682.025 6042.5599999999995C679.7869999999999 6046.36 677.03 6053.839999999999 675.586 6060.32C674.135 6066.79 674.093 6074.65 674.093 6077C673.708 6075.03 672.746 6067.93 673.0169999999999 6060.84C673.2439999999999 6054.9800000000005 674.606 6048.93 675.352 6046.16C678.198 6036.91 681.42 6030.99 682.025 6030.0599999999995C682.63 6030.99 686.687 6038.299999999999 688.7909999999999 6045.95C690.8839999999999 6053.599999999999 691.3069999999999 6060.94 691.218 6065.23C691.1279999999999 6069.5199999999995 691.218 6065.23 691.218 6065.23ZM686.429 6103.76H666.905V6116.95C666.922 6116.95 666.9359999999999 6116.92 666.953 6116.92C671.553 6112.28 679.0129999999999 6112.28 683.617 6116.92C688.217 6121.52 688.217 6129.04 683.617 6133.67C683.596 6133.71 683.5749999999999 6133.71 683.555 6133.74V6133.74C683.531 6133.74 683.507 6133.78 683.486 6133.8099999999995C678.896 6138.379999999999 672.901 6140.669999999999 666.905 6140.669999999999C660.881 6140.669999999999 654.858 6138.379999999999 650.265 6133.739999999999C642.165 6125.609999999999 641.206 6112.969999999998 647.381 6103.759999999999C648.213 6102.5199999999995 649.172 6101.339999999999 650.265 6100.23C654.858 6095.589999999999 660.881 6093.3099999999995 666.905 6093.3099999999995V6061.599999999999C643.761 6061.599999999999 625 6080.459999999999 625 6103.759999999999C625 6127.0599999999995 643.761 6145.969999999999 666.905 6145.969999999999C678.972 6145.969999999999 689.843 6140.8099999999995 697.4889999999999 6132.599999999999V6103.759999999999H686.429 " fill="#0079c2" fill-opacity="1" transform="matrix(1,0,0,1,-625,-6024)"></path></svg>