<svg id="SvgjsSvg1011" xmlns="http://www.w3.org/2000/svg" version="1.1" xmlns:xlink="http://www.w3.org/1999/xlink" xmlns:svgjs="http://svgjs.com/svgjs" width="242" height="96" viewBox="0 0 242 96"><title>Hermitage</title><desc>Created with Avocode.</desc><defs id="SvgjsDefs1012"></defs><path id="SvgjsPath1013" d="M1660.75 6079.32C1660.38 6078.78 1660.91 6077.94 1661.56 6078.15C1662.23 6078.73 1662.29 6080.04 1663.33 6080.11C1664.77 6080.549999999999 1665.36 6078.92 1665.96 6078C1666.41 6078.2 1666.95 6078.55 1666.7 6079.15C1666.45 6080.049999999999 1665.3500000000001 6080.509999999999 1664.48 6080.5C1663.21 6080.54 1661.38 6080.7 1660.75 6079.32ZM1456.7 6084.43C1457.18 6085.67 1457.31 6087.04 1457.04 6088.34C1456.84 6089.650000000001 1455.8999999999999 6090.7 1454.92 6091.53C1452.88 6093.25 1449.44 6092.74 1447.93 6090.5599999999995C1446.5800000000002 6088.86 1446.43 6086.419999999999 1447.23 6084.45C1448.01 6083 1449.38 6081.679999999999 1451.1100000000001 6081.5199999999995C1453.4 6081.009999999999 1455.71 6082.4 1456.7 6084.429999999999ZM1449.93 6082.73C1448.75 6083.969999999999 1448.54 6085.799999999999 1448.65 6087.44C1448.6200000000001 6088.759999999999 1448.96 6090.139999999999 1449.8700000000001 6091.129999999999C1451.0200000000002 6092.239999999999 1452.96 6092.0599999999995 1454.13 6091.099999999999C1455.0200000000002 6090.299999999999 1455.2700000000002 6089.049999999999 1455.3000000000002 6087.9C1455.2600000000002 6086.53 1455.3500000000001 6085.08 1454.7300000000002 6083.799999999999C1454.2000000000003 6082.679999999999 1452.9900000000002 6081.82 1451.7000000000003 6081.989999999999C1451.0800000000004 6082.1399999999985 1450.4200000000003 6082.299999999999 1449.9300000000003 6082.729999999999ZM1465.42 6083.12C1466.44 6081.98 1467.99 6081.37 1469.51 6081.46C1470.49 6081.5 1471.39 6081.88 1472.33 6082.09C1472.55 6081.83 1472.77 6081.57 1473.04 6081.35C1473.11 6082.610000000001 1473.18 6083.860000000001 1473.18 6085.120000000001C1472.75 6084.330000000001 1472.42 6083.450000000001 1471.75 6082.820000000001C1470.2 6081.460000000001 1467.35 6081.830000000001 1466.46 6083.790000000001C1465.65 6085.670000000001 1465.57 6087.890000000001 1466.29 6089.820000000001C1466.99 6091.530000000001 1469.1499999999999 6092.02 1470.81 6091.700000000001C1471.96 6091.360000000001 1472.61 6090.31 1473.47 6089.56C1473.39 6090.29 1472.79 6090.8 1472.31 6091.3C1470.75 6092.820000000001 1468.05 6093.02 1466.29 6091.7300000000005C1464.8899999999999 6090.85 1464.02 6089.240000000001 1463.97 6087.6C1463.79 6085.990000000001 1464.42 6084.370000000001 1465.42 6083.120000000001ZM1516.24 6081.46C1516.33 6081.46 1516.52 6081.47 1516.61 6081.47C1517.8999999999999 6084.490000000001 1519.1399999999999 6087.54 1520.4199999999998 6090.570000000001C1520.6799999999998 6091.240000000001 1521.2099999999998 6091.830000000001 1521.9399999999998 6091.9800000000005C1521.9599999999998 6092.040000000001 1521.9999999999998 6092.150000000001 1522.0199999999998 6092.200000000001C1520.6499999999999 6092.220000000001 1519.2899999999997 6092.220000000001 1517.9199999999998 6092.210000000001C1517.9299999999998 6092.140000000001 1517.9399999999998 6091.990000000001 1517.9499999999998 6091.920000000001C1518.33 6091.840000000001 1518.7099999999998 6091.740000000001 1519.08 6091.630000000001C1518.82 6090.640000000001 1518.46 6089.680000000001 1518.02 6088.760000000001C1516.65 6088.750000000001 1515.27 6088.750000000001 1513.9 6088.770000000001C1513.5800000000002 6089.5700000000015 1513.17 6090.330000000002 1512.94 6091.160000000002C1512.75 6091.800000000002 1513.68 6091.810000000001 1514.0700000000002 6091.930000000002C1514.0800000000002 6092.000000000002 1514.0900000000001 6092.140000000002 1514.1000000000001 6092.210000000002C1513.0100000000002 6092.220000000002 1511.93 6092.220000000002 1510.8400000000001 6092.210000000002C1510.8600000000001 6092.1500000000015 1510.89 6092.020000000002 1510.9 6091.950000000002C1511.3100000000002 6091.790000000002 1511.77 6091.620000000002 1512.01 6091.220000000002C1512.3799999999999 6090.660000000002 1512.56 6090.000000000002 1512.82 6089.390000000002C1513.33 6088.230000000002 1513.86 6087.060000000002 1514.31 6085.870000000002C1514.85 6084.3600000000015 1515.61 6082.940000000001 1516.24 6081.460000000002C1516.88 6079.980000000002 1516.24 6081.460000000002 1516.24 6081.460000000002ZM1514.22 6088.12C1515.42 6088.17 1516.63 6088.15 1517.83 6088.15C1517.1699999999998 6086.7699999999995 1516.6299999999999 6085.33 1516.05 6083.92C1515.25 6085.2300000000005 1514.76 6086.6900000000005 1514.22 6088.12ZM1544.58 6082.71C1545.57 6081.83 1546.9199999999998 6081.38 1548.24 6081.47C1549.2 6081.400000000001 1550.02 6082.01 1550.96 6082.02C1551.24 6081.860000000001 1551.48 6081.64 1551.74 6081.450000000001C1551.81 6082.660000000001 1551.95 6083.85 1552.09 6085.050000000001C1551.99 6085.050000000001 1551.81 6085.050000000001 1551.7099999999998 6085.040000000001C1551.36 6084.250000000001 1551.11 6083.340000000001 1550.4099999999999 6082.77C1549.11 6081.7300000000005 1547.06 6081.75 1545.84 6082.89C1544.24 6084.83 1543.9599999999998 6087.76 1545.09 6089.990000000001C1545.87 6091.550000000001 1547.83 6092.000000000001 1549.4199999999998 6091.710000000001C1550.62 6091.420000000001 1551.2299999999998 6090.250000000001 1552.2299999999998 6089.640000000001C1551.2699999999998 6092.220000000001 1547.8899999999999 6093.3200000000015 1545.5099999999998 6092.060000000001C1543.5299999999997 6091.080000000002 1542.4599999999998 6088.8200000000015 1542.6599999999999 6086.670000000001C1542.7799999999997 6085.170000000001 1543.4999999999998 6083.740000000001 1544.58 6082.710000000001ZM1432.18 6081.64C1435.05 6081.75 1437.91 6081.6900000000005 1440.78 6081.71C1440.75 6082.53 1440.71 6083.36 1440.66 6084.18C1440.5700000000002 6084.14 1440.47 6084.240000000001 1440.44 6084.06C1440.3700000000001 6083.56 1440.19 6082.860000000001 1439.89 6082.570000000001C1438.39 6082.080000000001 1436.7900000000002 6082.360000000001 1435.24 6082.3C1435.25 6084.6900000000005 1435.23 6087.08 1435.24 6089.47C1435.26 6090.14 1435.23 6090.81 1435.4 6091.46C1435.68 6091.8 1436.49 6091.85 1436.91 6091.94C1437.0400000000002 6091.96 1436.98 6092.089999999999 1436.98 6092.219999999999C1435.54 6092.259999999999 1433.8 6092.24 1432.25 6092.209999999999C1432.25 6092.139999999999 1432.25 6092.009999999999 1432.26 6091.949999999999C1432.68 6091.829999999999 1433.41 6091.979999999999 1433.6299999999999 6091.449999999999C1433.9499999999998 6089.859999999999 1433.76 6088.209999999999 1433.81 6086.5999999999985C1433.75 6085.219999999998 1433.98 6083.809999999999 1433.6399999999999 6082.459999999998C1433.33 6081.999999999998 1432.6699999999998 6082.049999999998 1432.1899999999998 6081.859999999998C1432.1899999999998 6081.809999999998 1432.1799999999998 6081.699999999998 1432.1799999999998 6081.639999999998ZM1479.4 6081.63C1480.8400000000001 6081.6900000000005 1482.27 6081.71 1483.71 6081.66C1483.72 6081.71 1483.75 6081.8099999999995 1483.76 6081.86C1483.33 6081.99 1482.9 6082.16 1482.49 6082.37C1483.3 6084.5199999999995 1484.64 6086.41 1485.77 6088.39C1486.12 6087.570000000001 1486.5 6086.77 1486.81 6085.93C1487.24 6084.780000000001 1487.84 6083.67 1488.01 6082.4400000000005C1487.69 6082.250000000001 1487.36 6082.06 1487.03 6081.88C1487.04 6081.82 1487.07 6081.7 1487.08 6081.64C1488.1499999999999 6081.67 1489.23 6081.71 1490.3 6081.650000000001C1490.31 6081.700000000001 1490.33 6081.81 1490.34 6081.860000000001C1489.6699999999998 6082.150000000001 1488.98 6082.540000000001 1488.7099999999998 6083.26C1488.1299999999999 6084.47 1487.6599999999999 6085.7300000000005 1487.11 6086.95C1486.4499999999998 6088.5 1485.8999999999999 6090.15 1484.85 6091.5C1484.34 6092.19 1483.5 6092.66 1482.61 6092.53C1482.1799999999998 6092.48 1481.7299999999998 6092.179999999999 1481.6499999999999 6091.73C1481.6899999999998 6091.459999999999 1481.6899999999998 6091.24 1481.9599999999998 6091.12C1482.37 6091.0599999999995 1482.5099999999998 6091.29 1482.7399999999998 6091.39C1483.1099999999997 6091.55 1483.4099999999999 6091.490000000001 1484.0899999999997 6091.21C1484.5299999999997 6090.97 1484.7299999999998 6090.49 1485.0099999999998 6090.11C1484.2999999999997 6088.8099999999995 1483.6399999999999 6087.48 1482.8099999999997 6086.25C1482.0299999999997 6085.08 1481.5899999999997 6083.72 1480.6899999999998 6082.63C1480.2799999999997 6082.31 1479.83 6082.07 1479.37 6081.85C1479.3799999999999 6081.8 1479.3899999999999 6081.68 1479.3999999999999 6081.63ZM1496.16 6081.77C1499.1100000000001 6081.610000000001 1502.0600000000002 6081.790000000001 1505 6081.64C1504.99 6081.700000000001 1504.97 6081.820000000001 1504.96 6081.87C1504.5 6082.04 1503.83 6081.98 1503.6200000000001 6082.5C1503.3200000000002 6083.68 1503.45 6084.92 1503.41 6086.12C1503.45 6088 1503.28 6089.92 1503.75 6091.75C1504.15 6091.81 1504.55 6091.86 1504.95 6091.91C1504.98 6093.08 1505 6094.26 1504.93 6095.43C1504.38 6094.68 1504.24 6093.6900000000005 1503.55 6093.05C1502.69 6092.26 1501.4099999999999 6092.24 1500.31 6092.1900000000005C1499.28 6092.2300000000005 1498.19 6092.070000000001 1497.2 6092.450000000001C1495.89 6092.77 1495.07 6094.040000000001 1494.8400000000001 6095.290000000001C1494.7700000000002 6095.300000000001 1494.63 6095.320000000001 1494.5600000000002 6095.330000000001C1494.5600000000002 6094.210000000001 1494.5600000000002 6093.090000000001 1494.5700000000002 6091.970000000001C1495.42 6091.760000000001 1496.2500000000002 6091.260000000001 1496.6200000000001 6090.450000000001C1497.8200000000002 6088.1 1498.0200000000002 6085.370000000001 1497.89 6082.790000000001C1497.74 6082.000000000001 1496.76 6082.000000000001 1496.16 6081.77C1495.5700000000002 6081.55 1496.16 6081.77 1496.16 6081.77ZM1498.89 6082.3C1498.69 6084.18 1498.67 6086.070000000001 1498.26 6087.92C1498.02 6089.25 1497.3799999999999 6090.46 1496.69 6091.61C1498.42 6091.63 1500.14 6091.65 1501.8700000000001 6091.53C1501.8700000000001 6088.45 1501.8700000000001 6085.38 1501.8700000000001 6082.3C1500.8700000000001 6082.3 1499.88 6082.3 1498.89 6082.3ZM1532.61 6081.67C1533.82 6081.71 1535.12 6082.2 1535.7099999999998 6083.33C1536.3199999999997 6084.45 1536.0199999999998 6086 1535.0199999999998 6086.8C1533.9199999999998 6087.77 1532.3299999999997 6087.54 1530.9899999999998 6087.360000000001C1530.9799999999998 6088.540000000001 1530.9499999999998 6089.72 1530.9799999999998 6090.910000000001C1530.9899999999998 6091.1900000000005 1531.0299999999997 6091.500000000001 1531.2399999999998 6091.710000000001C1531.6099999999997 6091.840000000001 1532.0299999999997 6091.840000000001 1532.4199999999998 6091.910000000001C1532.4199999999998 6091.990000000001 1532.4299999999998 6092.14 1532.4299999999998 6092.210000000001C1530.8999999999999 6092.220000000001 1529.3799999999999 6092.220000000001 1527.85 6092.210000000001C1527.8799999999999 6092.140000000001 1527.9199999999998 6091.990000000001 1527.9399999999998 6091.920000000001C1528.32 6091.890000000001 1528.7299999999998 6091.870000000001 1529.12 6091.840000000001C1529.54 6088.680000000001 1529.2099999999998 6085.480000000001 1529.3 6082.300000000001C1528.82 6082.090000000001 1528.3 6081.950000000001 1527.8 6081.780000000001C1529.3999999999999 6081.6900000000005 1531.01 6081.670000000001 1532.61 6081.670000000001C1534.2199999999998 6081.660000000001 1532.61 6081.670000000001 1532.61 6081.670000000001ZM1530.99 6082.39C1530.98 6083.89 1530.98 6085.39 1530.99 6086.89C1531.66 6086.950000000001 1532.36 6087.01 1533.02 6086.84C1534.53 6086.1 1534.58 6083.72 1533.32 6082.72C1532.6599999999999 6082.1900000000005 1531.76 6082.39 1530.99 6082.39ZM1589.7 6081.64C1592.44 6081.740000000001 1595.19 6081.740000000001 1597.94 6081.650000000001C1598.02 6082.43 1598.0700000000002 6083.200000000001 1598.1100000000001 6083.9800000000005C1598.0300000000002 6083.97 1597.88 6083.950000000001 1597.8100000000002 6083.9400000000005C1597.5900000000001 6083.320000000001 1597.3500000000001 6082.4400000000005 1596.5800000000002 6082.370000000001C1595.3300000000002 6082.250000000001 1594.0700000000002 6082.300000000001 1592.8200000000002 6082.300000000001C1592.8200000000002 6083.660000000001 1592.8200000000002 6085.010000000001 1592.8200000000002 6086.370000000001C1593.92 6086.31 1595.0800000000002 6086.52 1596.17 6086.240000000001C1596.64 6085.910000000001 1596.71 6085.250000000001 1596.98 6084.77C1597.01 6086.070000000001 1597.01 6087.370000000001 1596.99 6088.67C1596.74 6088.18 1596.66 6087.53 1596.18 6087.2C1595.1000000000001 6086.87 1593.93 6087 1592.8200000000002 6086.94C1592.8200000000002 6088.41 1592.8100000000002 6089.879999999999 1592.8300000000002 6091.349999999999C1592.91 6091.44 1593.0000000000002 6091.53 1593.0900000000001 6091.61C1594.3300000000002 6091.589999999999 1595.6100000000001 6091.74 1596.8300000000002 6091.46C1597.8300000000002 6091.17 1598.16 6090.09 1598.8000000000002 6089.39C1598.63 6090.34 1598.2800000000002 6091.25 1598.0100000000002 6092.17C1595.2300000000002 6092.25 1592.4600000000003 6092.21 1589.6800000000003 6092.21C1589.7100000000003 6092.15 1589.7500000000002 6092.03 1589.7800000000002 6091.97C1590.2000000000003 6091.85 1590.7600000000002 6091.92 1591.1100000000001 6091.59C1591.3300000000002 6091.16 1591.19 6090.64 1591.2700000000002 6090.1900000000005C1591.2700000000002 6088.000000000001 1591.2700000000002 6085.8 1591.2600000000002 6083.610000000001C1591.2200000000003 6083.160000000001 1591.3000000000002 6082.6 1590.9900000000002 6082.210000000001C1590.6200000000003 6081.960000000001 1590.1400000000003 6081.980000000001 1589.7200000000003 6081.880000000001C1589.7200000000003 6081.820000000001 1589.7100000000003 6081.700000000001 1589.7000000000003 6081.640000000001ZM1604.85 6081.76C1606.3999999999999 6081.570000000001 1607.9699999999998 6081.7300000000005 1609.53 6081.75C1608.98 6081.93 1608.11 6082.02 1607.99 6082.73C1607.85 6084.0199999999995 1607.92 6085.3099999999995 1607.92 6086.599999999999C1609.5500000000002 6086.599999999999 1611.19 6086.599999999999 1612.8300000000002 6086.599999999999C1612.8100000000002 6085.3099999999995 1612.91 6084.009999999999 1612.7700000000002 6082.73C1612.7000000000003 6082.009999999999 1611.8000000000002 6081.99 1611.2700000000002 6081.87C1611.2900000000002 6081.82 1611.3300000000002 6081.7 1611.3500000000001 6081.65C1612.88 6081.7 1614.42 6081.69 1615.95 6081.7C1615.43 6081.929999999999 1614.9 6082.15 1614.39 6082.41C1614.46 6085.44 1614.23 6088.49 1614.5 6091.51C1614.81 6091.89 1615.43 6091.81 1615.89 6091.9400000000005C1615.89 6092.000000000001 1615.9 6092.110000000001 1615.9 6092.17C1614.3600000000001 6092.2300000000005 1612.8200000000002 6092.22 1611.27 6092.21C1611.27 6092.14 1611.28 6091.99 1611.28 6091.91C1611.74 6091.87 1612.21 6091.8099999999995 1612.67 6091.71C1612.8400000000001 6090.19 1612.8500000000001 6088.65 1612.8000000000002 6087.12C1611.1800000000003 6087.07 1609.5700000000002 6087.05 1607.9500000000003 6087.11C1607.9200000000003 6088.62 1607.8200000000002 6090.15 1608.0600000000002 6091.66C1608.5700000000002 6091.79 1609.1000000000001 6091.9 1609.5900000000001 6092.09C1608.0400000000002 6092.25 1606.4800000000002 6092.24 1604.92 6092.21C1604.92 6092.15 1604.93 6092.02 1604.93 6091.96C1605.43 6091.89 1605.93 6091.79 1606.38 6091.56C1606.3400000000001 6088.51 1606.3600000000001 6085.450000000001 1606.3700000000001 6082.400000000001C1605.89 6082.13 1605.3600000000001 6081.950000000001 1604.8500000000001 6081.76ZM1621.8 6081.64C1623.3799999999999 6081.71 1624.96 6081.6900000000005 1626.54 6081.7300000000005C1626.03 6081.950000000001 1625.24 6081.990000000001 1624.99 6082.580000000001C1624.8700000000001 6083.920000000001 1624.93 6085.260000000001 1624.94 6086.600000000001C1626.53 6086.600000000001 1628.13 6086.600000000001 1629.73 6086.600000000001C1629.72 6085.220000000001 1629.79 6083.840000000001 1629.68 6082.460000000001C1629.3600000000001 6082.000000000001 1628.72 6081.950000000001 1628.25 6081.740000000001C1629.79 6081.700000000001 1631.34 6081.68 1632.89 6081.7300000000005C1632.48 6081.89 1632.0400000000002 6081.9800000000005 1631.67 6082.22C1631.28 6082.5 1631.3500000000001 6083.09 1631.3100000000002 6083.5C1631.2500000000002 6085.69 1631.2800000000002 6087.88 1631.2800000000002 6090.07C1631.2900000000002 6090.599999999999 1631.2500000000002 6091.29 1631.6800000000003 6091.69C1632.0400000000002 6091.839999999999 1632.4400000000003 6091.839999999999 1632.8300000000004 6091.91C1632.8300000000004 6091.99 1632.8400000000004 6092.139999999999 1632.8500000000004 6092.21C1631.3200000000004 6092.22 1629.7900000000004 6092.22 1628.2700000000004 6092.21C1628.2900000000004 6092.14 1628.3400000000004 6092.01 1628.3600000000004 6091.94C1628.7700000000004 6091.879999999999 1629.2100000000003 6091.82 1629.6300000000003 6091.75C1629.7500000000002 6090.19 1629.7300000000002 6088.64 1629.7300000000002 6087.08C1628.1300000000003 6087.08 1626.5300000000002 6087.08 1624.9400000000003 6087.08C1624.9600000000003 6088.53 1624.8200000000004 6089.99 1625.0100000000002 6091.43C1625.3200000000002 6091.950000000001 1626.0900000000001 6091.83 1626.6000000000001 6092.1C1625.0100000000002 6092.25 1623.41 6092.240000000001 1621.8200000000002 6092.21C1621.8200000000002 6092.14 1621.8200000000002 6092.01 1621.8300000000002 6091.94C1622.2300000000002 6091.849999999999 1622.7200000000003 6091.91 1623.1000000000001 6091.7C1623.42 6091.47 1623.2600000000002 6090.96 1623.3600000000001 6090.66C1623.42 6088.47 1623.3700000000001 6086.28 1623.38 6084.09C1623.3200000000002 6083.52 1623.45 6082.900000000001 1623.19 6082.360000000001C1622.8400000000001 6082.01 1622.29 6081.990000000001 1621.8500000000001 6081.870000000001C1621.8400000000001 6081.81 1621.8100000000002 6081.6900000000005 1621.8000000000002 6081.640000000001ZM1647.64 6081.77C1649.14 6081.59 1650.67 6081.72 1652.18 6081.64C1652.2 6081.6900000000005 1652.24 6081.79 1652.27 6081.84C1651.87 6081.99 1651.31 6081.89 1650.99 6082.2300000000005C1650.59 6082.9800000000005 1650.75 6083.88 1650.69 6084.6900000000005C1650.74 6087.02 1650.53 6089.38 1650.89 6091.700000000001C1651.38 6091.81 1651.9 6091.89 1652.3700000000001 6092.090000000001C1650.8100000000002 6092.250000000001 1649.24 6092.230000000001 1647.68 6092.210000000001C1647.7 6092.150000000001 1647.75 6092.040000000001 1647.78 6091.980000000001C1648.1399999999999 6091.870000000002 1648.59 6091.870000000002 1648.93 6091.640000000001C1649.27 6091.4000000000015 1649.18 6090.890000000001 1649.24 6090.540000000001C1649.29 6088.160000000001 1649.29 6085.760000000001 1649.24 6083.380000000001C1649.22 6082.970000000001 1649.23 6082.410000000001 1648.83 6082.160000000001C1648.46 6081.970000000001 1648.02 6081.89 1647.6399999999999 6081.77ZM1558.8 6081.71C1561.71 6081.7 1564.6299999999999 6081.7 1567.54 6081.71C1567.53 6082.54 1567.53 6083.38 1567.53 6084.22C1567.46 6084.21 1567.33 6084.1900000000005 1567.27 6084.18C1567.11 6083.56 1566.91 6082.79 1566.28 6082.490000000001C1565.48 6082.300000000001 1564.6399999999999 6082.320000000001 1563.82 6082.260000000001C1563.84 6084.8600000000015 1563.78 6087.470000000001 1563.83 6090.0700000000015C1563.82 6090.630000000002 1563.9399999999998 6091.190000000001 1564.04 6091.740000000002C1564.44 6091.790000000002 1564.84 6091.840000000002 1565.25 6091.880000000002C1565.25 6091.970000000002 1565.26 6092.130000000002 1565.26 6092.210000000002C1563.78 6092.220000000002 1562.29 6092.220000000002 1560.8 6092.210000000002C1560.83 6092.1500000000015 1560.8799999999999 6092.020000000002 1560.8999999999999 6091.960000000002C1561.35 6091.880000000002 1561.82 6091.780000000002 1562.2599999999998 6091.640000000002C1562.2599999999998 6088.520000000002 1562.2599999999998 6085.390000000002 1562.2599999999998 6082.270000000002C1561.4599999999998 6082.320000000002 1560.6199999999997 6082.250000000002 1559.8599999999997 6082.5300000000025C1559.2299999999996 6082.850000000002 1559.0999999999997 6083.610000000002 1558.8699999999997 6084.210000000003C1558.7999999999997 6084.190000000002 1558.6499999999996 6084.160000000003 1558.5699999999997 6084.150000000002C1558.6699999999996 6083.340000000002 1558.7799999999997 6082.5300000000025 1558.7999999999997 6081.710000000003ZM1578.92 6081.69C1579.93 6081.629999999999 1580.97 6081.95 1581.76 6082.57C1582.57 6083.179999999999 1582.94 6084.36 1582.54 6085.3099999999995C1582.29 6086.039999999999 1581.6299999999999 6086.509999999999 1580.97 6086.839999999999C1581.8 6087.0599999999995 1582.65 6087.579999999999 1582.99 6088.4C1583.17 6089.099999999999 1583.19 6089.879999999999 1582.86 6090.54C1582.4799999999998 6091.61 1581.25 6092.04 1580.2199999999998 6092.17C1577.9899999999998 6092.3 1575.7399999999998 6092.1900000000005 1573.5099999999998 6092.2C1573.5299999999997 6092.139999999999 1573.5699999999997 6092.0199999999995 1573.5999999999997 6091.96C1573.9799999999998 6091.87 1574.4599999999996 6091.93 1574.8199999999997 6091.71C1575.2299999999998 6091.33 1574.9799999999998 6090.67 1575.0899999999997 6090.19C1575.1099999999997 6087.589999999999 1575.0599999999997 6084.99 1575.0999999999997 6082.389999999999C1574.5799999999997 6082.099999999999 1574.0099999999998 6081.95 1573.4499999999996 6081.78C1575.2699999999995 6081.679999999999 1577.0999999999997 6081.679999999999 1578.9199999999996 6081.69ZM1576.64 6086.38C1577.72 6086.46 1578.8400000000001 6086.55 1579.9 6086.26C1581.16 6085.7300000000005 1581.3700000000001 6083.87 1580.4 6082.9800000000005C1579.3700000000001 6082.110000000001 1577.88 6081.93 1576.64 6082.42C1576.64 6083.74 1576.64 6085.06 1576.64 6086.38ZM1576.64 6091.51C1577.91 6091.59 1579.38 6091.900000000001 1580.5 6091.16C1581.81 6090.3099999999995 1581.51 6088.13 1580.14 6087.53C1579.0600000000002 6086.95 1577.8200000000002 6087.0599999999995 1576.64 6087.17C1576.64 6088.62 1576.64 6090.07 1576.64 6091.51ZM1638.76 6081.78C1640.37 6081.679999999999 1641.98 6081.65 1643.59 6081.759999999999C1643.1499999999999 6081.959999999999 1642.6499999999999 6082.009999999999 1642.22 6082.23C1641.89 6082.429999999999 1641.93 6082.849999999999 1641.89 6083.19C1641.8000000000002 6084.23 1641.8200000000002 6085.28 1641.8200000000002 6086.33C1643.5200000000002 6086.43 1645.7000000000003 6086.26 1646.8500000000001 6087.8099999999995C1647.95 6089.349999999999 1646.88 6091.74 1645.0500000000002 6092.08C1642.9800000000002 6092.37 1640.88 6092.18 1638.8000000000002 6092.2C1638.8300000000002 6092.139999999999 1638.88 6092.03 1638.91 6091.98C1639.3300000000002 6091.849999999999 1639.98 6091.929999999999 1640.23 6091.459999999999C1640.44 6090.989999999999 1640.33 6090.449999999999 1640.39 6089.949999999999C1640.4 6087.759999999999 1640.43 6085.569999999999 1640.3700000000001 6083.379999999999C1640.3300000000002 6083.009999999999 1640.4 6082.449999999999 1640.0000000000002 6082.239999999999C1639.6000000000001 6082.049999999999 1639.1700000000003 6081.949999999999 1638.7600000000002 6081.779999999999C1638.3600000000001 6081.609999999999 1638.7600000000002 6081.779999999999 1638.7600000000002 6081.779999999999ZM1641.83 6091.64C1642.6299999999999 6091.700000000001 1643.51 6091.83 1644.23 6091.39C1645.52 6090.77 1645.94 6088.76 1644.85 6087.77C1644.02 6087.05 1642.8799999999999 6086.93 1641.83 6087.02C1641.83 6088.56 1641.83 6090.1 1641.83 6091.64ZM1658.07 6081.76C1659.6699999999998 6081.6900000000005 1661.27 6081.66 1662.87 6081.76C1662.4699999999998 6081.9400000000005 1662.03 6082.05 1661.6399999999999 6082.24C1661.28 6082.48 1661.31 6083.01 1661.27 6083.38C1661.18 6085.46 1661.25 6087.54 1661.26 6089.62C1662.81 6087.73 1664.34 6085.82 1665.79 6083.849999999999C1666.18 6083.469999999999 1666.35 6082.719999999999 1665.9099999999999 6082.3099999999995C1665.55 6081.95 1664.9799999999998 6081.95 1664.5299999999997 6081.78C1666.0899999999997 6081.679999999999 1667.6599999999999 6081.67 1669.2199999999998 6081.75C1668.7299999999998 6082.06 1667.9099999999999 6082.06 1667.7899999999997 6082.73C1667.6299999999997 6084.339999999999 1667.7299999999998 6085.95 1667.6999999999998 6087.5599999999995C1667.7199999999998 6088.95 1667.6299999999999 6090.36 1667.8999999999999 6091.73C1668.32 6091.78 1668.7199999999998 6091.83 1669.1399999999999 6091.879999999999C1669.1399999999999 6091.959999999999 1669.1499999999999 6092.129999999999 1669.1599999999999 6092.209999999999C1667.6299999999999 6092.219999999999 1666.11 6092.219999999999 1664.6 6092.209999999999C1664.6 6092.139999999999 1664.61 6092.009999999999 1664.61 6091.939999999999C1665.03 6091.779999999999 1665.99 6091.979999999999 1666.09 6091.329999999999C1666.25 6088.989999999999 1666.1299999999999 6086.649999999999 1666.1399999999999 6084.299999999999C1664.7599999999998 6086.039999999999 1663.4099999999999 6087.8099999999995 1662.05 6089.5599999999995C1661.6399999999999 6090.0599999999995 1661.08 6090.62 1661.28 6091.339999999999C1661.59 6091.929999999999 1662.37 6091.819999999999 1662.91 6092.099999999999C1661.3100000000002 6092.249999999999 1659.7 6092.24 1658.1100000000001 6092.209999999999C1658.13 6092.149999999999 1658.18 6092.029999999999 1658.2 6091.969999999999C1658.6200000000001 6091.849999999999 1659.18 6091.919999999999 1659.53 6091.589999999999C1659.76 6091.159999999999 1659.61 6090.639999999999 1659.69 6090.19C1659.68 6087.719999999999 1659.73 6085.25 1659.67 6082.78C1659.5900000000001 6082.0199999999995 1658.5900000000001 6082.0199999999995 1658.0700000000002 6081.759999999999ZM1433.36 6097.24C1433.6999999999998 6097.2699999999995 1434.04 6097.3099999999995 1434.3799999999999 6097.36C1434.4899999999998 6098.58 1434.86 6099.8099999999995 1435.6399999999999 6100.78C1436.1599999999999 6101.3099999999995 1436.8799999999999 6101.679999999999 1437.6399999999999 6101.65C1438.59 6101.69 1439.61 6101.75 1440.4499999999998 6101.24C1442.4699999999998 6100.12 1444.7999999999997 6099.62 1447.11 6099.65C1448.9099999999999 6099.7699999999995 1450.76 6099.86 1452.4199999999998 6100.629999999999C1453.11 6101.0599999999995 1454.1399999999999 6101.73 1454.3 6101.9C1456.31 6103.42 1457.57 6105.03 1458.6299999999999 6107.37C1459.6699999999998 6109.48 1460.1499999999999 6111.849999999999 1460.06 6114.2C1460.04 6120.97 1460.05 6127.74 1460.05 6134.51C1460.02 6138.34 1458.78 6142.3 1456.01 6145.05C1455.45 6145.58 1454.86 6146.08 1454.37 6146.68C1458.35 6145.860000000001 1462.2099999999998 6144.610000000001 1466.12 6143.52C1466.2199999999998 6131.360000000001 1466.12 6119.1900000000005 1466.1699999999998 6107.030000000001C1466.2699999999998 6105.35 1465.7899999999997 6103.590000000001 1464.61 6102.360000000001C1463.35 6101.110000000001 1461.4699999999998 6101.02 1459.8 6100.910000000001C1459.79 6100.64 1459.78 6100.380000000001 1459.77 6100.110000000001C1466.78 6100.080000000001 1473.78 6100.120000000001 1480.78 6100.09C1483.46 6100.06 1486.3 6100.57 1488.5 6102.2C1489.3 6102.8099999999995 1489.94 6103.61 1490.4 6104.5C1491.0800000000002 6105.97 1491.21 6107.6 1491.39 6109.18C1491.5600000000002 6113.22 1491.3300000000002 6117.26 1491.5 6121.3C1491.66 6123.150000000001 1491.11 6125.09 1489.88 6126.49C1488.7800000000002 6127.95 1487.15 6128.849999999999 1485.5 6129.55C1484.74 6129.89 1483.87 6129.81 1483.06 6129.85C1480.6599999999999 6129.860000000001 1478.26 6129.83 1475.87 6129.85C1475.87 6133.39 1475.86 6136.9400000000005 1475.87 6140.490000000001C1477.84 6140.050000000001 1479.77 6139.47 1481.75 6139.06C1485.71 6138.3 1489.65 6137.370000000001 1493.65 6136.81C1494.8100000000002 6136.570000000001 1495.99 6136.46 1497.16 6136.25C1497.24 6128.46 1497.18 6120.67 1497.19 6112.88C1497.05 6110.32 1497.16 6107.75 1496.97 6105.2C1496.55 6103.849999999999 1495.6000000000001 6102.66 1494.41 6101.92C1493.71 6101.47 1492.8400000000001 6101.4 1492.0400000000002 6101.25C1491.9900000000002 6100.95 1491.9400000000003 6100.65 1491.9 6100.35C1496.22 6100.34 1500.5300000000002 6100.33 1504.8500000000001 6100.35C1507.4800000000002 6109.22 1509.9 6118.160000000001 1512.5900000000001 6127.02C1513.0700000000002 6125.17 1513.5000000000002 6123.3 1514.14 6121.5C1514.39 6120.86 1514.39 6120.16 1514.5900000000001 6119.51C1515.96 6114.43 1517.2500000000002 6109.320000000001 1518.5800000000002 6104.2300000000005C1518.9800000000002 6102.870000000001 1519.3300000000002 6101.490000000001 1519.64 6100.110000000001C1530.3600000000001 6100.110000000001 1541.0800000000002 6100.06 1551.8000000000002 6100.130000000001C1551.7800000000002 6100.510000000001 1551.7500000000002 6100.880000000001 1551.7100000000003 6101.250000000001C1550.2800000000002 6101.510000000001 1548.6800000000003 6101.710000000001 1547.6800000000003 6102.880000000001C1546.8300000000004 6103.850000000001 1546.6800000000003 6105.180000000001 1546.7100000000003 6106.410000000001C1546.6500000000003 6114.300000000001 1546.7000000000003 6122.1900000000005 1546.6900000000003 6130.090000000001C1547.0300000000002 6130.080000000001 1547.4100000000003 6130.090000000001 1547.7700000000002 6130.080000000001C1548.7000000000003 6126.4800000000005 1549.3400000000001 6122.81 1550.2900000000002 6119.210000000001C1550.4900000000002 6118.600000000001 1550.5900000000001 6117.960000000001 1550.6900000000003 6117.320000000001C1551.9500000000003 6111.570000000001 1553.3300000000004 6105.85 1554.6200000000003 6100.110000000001C1559.3300000000004 6100.09 1564.0400000000004 6100.1 1568.7600000000004 6100.1C1568.8600000000004 6100.55 1568.9100000000005 6101.01 1568.9700000000005 6101.46C1567.2200000000005 6101.66 1565.4000000000005 6102.05 1563.9500000000005 6103.1C1563.2600000000004 6103.570000000001 1562.8600000000006 6104.360000000001 1562.8200000000004 6105.200000000001C1562.6300000000003 6107.990000000001 1562.8100000000004 6110.800000000001 1562.7300000000005 6113.6C1562.5200000000004 6119.01 1562.6600000000005 6124.43 1562.6200000000006 6129.84C1568.2200000000005 6129.75 1573.8100000000006 6130.01 1579.4000000000005 6130.21C1579.4000000000005 6120.55 1579.4000000000005 6110.88 1579.4000000000005 6101.21C1578.3500000000006 6101.14 1577.2800000000007 6101.51 1576.6300000000006 6102.36C1575.2900000000006 6104.0199999999995 1574.6100000000006 6106.089999999999 1574.0300000000007 6108.11C1572.8600000000006 6112.32 1572.2500000000007 6116.66 1571.8100000000006 6121C1571.4000000000005 6123.49 1571.4000000000005 6126.02 1571.1500000000005 6128.53C1570.7600000000004 6128.5199999999995 1570.4300000000005 6128.53 1570.0500000000006 6128.53C1570.0500000000006 6119.05 1570.0500000000006 6109.58 1570.0500000000006 6100.099999999999C1579.5600000000006 6100.099999999999 1589.0600000000006 6100.099999999999 1598.5700000000006 6100.099999999999C1598.5800000000006 6104.28 1598.5600000000006 6108.459999999999 1598.5800000000006 6112.639999999999C1598.7600000000007 6117.959999999999 1598.7100000000007 6123.28 1598.6500000000005 6128.599999999999C1598.2900000000006 6128.62 1597.9600000000005 6128.639999999999 1597.6100000000006 6128.66C1597.4200000000005 6124.93 1597.3000000000006 6121.19 1596.7600000000007 6117.49C1596.4800000000007 6114.599999999999 1595.9200000000008 6111.75 1595.2400000000007 6108.929999999999C1594.6600000000008 6106.8099999999995 1594.0000000000007 6104.65 1592.7200000000007 6102.829999999999C1592.0500000000006 6101.749999999999 1590.8800000000008 6100.959999999999 1589.5900000000006 6100.879999999999C1589.5200000000007 6105.639999999999 1589.7000000000005 6110.4 1589.4700000000007 6115.15C1589.4500000000007 6120.5599999999995 1589.4700000000007 6125.969999999999 1589.4700000000007 6131.379999999999C1593.4000000000008 6131.459999999999 1597.3100000000006 6131.969999999999 1601.2000000000007 6132.579999999999C1602.8300000000008 6124.639999999999 1604.3600000000008 6116.679999999999 1605.7900000000006 6108.709999999999C1606.0900000000006 6107.219999999999 1606.3300000000006 6105.709999999999 1606.2000000000007 6104.199999999999C1606.1000000000008 6103.159999999999 1605.5500000000006 6102.0999999999985 1604.5200000000007 6101.719999999999C1602.9800000000007 6101.209999999999 1601.3300000000006 6101.28 1599.7600000000007 6101.539999999999C1599.7100000000007 6101.139999999999 1599.6700000000008 6100.739999999999 1599.6300000000006 6100.339999999999C1604.8000000000006 6100.329999999999 1609.9600000000005 6100.339999999999 1615.1300000000006 6100.339999999999C1617.2200000000005 6109.959999999999 1619.1600000000005 6119.61 1621.2200000000005 6129.239999999999C1621.6100000000006 6131.359999999999 1622.2000000000005 6133.439999999999 1622.5500000000004 6135.569999999999C1622.6500000000003 6135.899999999999 1622.6200000000003 6136.379999999999 1623.0200000000004 6136.519999999999C1624.2800000000004 6137.009999999998 1625.5600000000004 6137.449999999999 1626.8500000000004 6137.839999999998C1626.8400000000004 6135.019999999999 1626.9000000000003 6132.189999999999 1626.7500000000005 6129.369999999998C1626.7300000000005 6128.1399999999985 1626.5900000000004 6126.909999999998 1626.6600000000005 6125.6799999999985C1626.8500000000006 6124.299999999998 1627.2700000000004 6122.939999999999 1627.9000000000005 6121.689999999999C1628.6300000000006 6120.359999999999 1629.8000000000006 6119.229999999999 1631.2300000000005 6118.669999999998C1633.4600000000005 6117.779999999998 1635.9400000000005 6117.939999999999 1638.2700000000004 6118.319999999998C1637.0400000000004 6117.589999999998 1636.0200000000004 6116.369999999998 1635.8900000000003 6114.919999999998C1635.6200000000003 6112.209999999998 1635.6100000000004 6109.479999999999 1635.5800000000004 6106.759999999998C1634.8500000000004 6107.689999999999 1634.2700000000004 6108.819999999999 1633.1500000000003 6109.3499999999985C1631.6400000000003 6109.989999999999 1629.8700000000003 6110.109999999999 1628.3200000000004 6109.509999999998C1626.9000000000003 6109.109999999999 1625.7900000000004 6108.009999999998 1625.1200000000003 6106.739999999998C1624.7800000000004 6105.679999999998 1624.3400000000004 6104.489999999998 1624.8800000000003 6103.399999999998C1625.1600000000003 6102.329999999998 1625.9100000000003 6101.389999999998 1626.9000000000003 6100.869999999998C1628.3300000000004 6100.129999999998 1630.0000000000002 6099.829999999998 1631.6100000000004 6100.019999999998C1632.8200000000004 6100.299999999997 1634.0300000000004 6100.679999999998 1635.1000000000004 6101.319999999998C1635.8700000000003 6102.029999999998 1636.7800000000004 6102.909999999998 1636.7700000000004 6104.039999999998C1636.9300000000005 6107.629999999998 1637.1000000000004 6111.209999999998 1637.1800000000005 6114.789999999998C1637.3300000000006 6115.589999999998 1637.7300000000005 6116.419999999998 1638.4500000000005 6116.8499999999985C1639.3100000000004 6117.539999999998 1640.4000000000005 6117.779999999999 1641.4500000000005 6118.029999999999C1641.6500000000005 6113.289999999999 1641.6700000000005 6108.539999999999 1641.4800000000005 6103.799999999999C1641.5200000000004 6103.099999999999 1641.2900000000004 6102.36 1640.7900000000004 6101.86C1639.7100000000005 6100.87 1638.1200000000003 6101.25 1636.8000000000004 6101.04C1636.8000000000004 6100.86 1636.8000000000004 6100.51 1636.8000000000004 6100.34C1643.4500000000005 6100.360000000001 1650.1000000000004 6100.3 1656.7600000000004 6100.37C1656.7700000000004 6100.5599999999995 1656.7900000000004 6100.93 1656.8100000000004 6101.11C1655.6400000000003 6101.23 1654.4100000000003 6101.41 1653.4700000000005 6102.16C1651.9100000000005 6103.22 1651.5300000000004 6105.2699999999995 1651.6500000000005 6107.03C1651.8100000000006 6110.74 1651.7800000000007 6114.45 1651.7800000000007 6118.17C1653.0700000000006 6117.99 1654.4100000000008 6117.64 1655.3700000000006 6116.71C1656.2300000000005 6115.93 1656.5400000000006 6114.7300000000005 1656.5500000000006 6113.6C1656.5600000000006 6111.17 1656.6900000000007 6108.740000000001 1656.6900000000007 6106.31C1656.7100000000007 6104.97 1656.7300000000007 6103.52 1657.5400000000006 6102.38C1658.5300000000007 6100.64 1660.6500000000005 6099.93 1662.5600000000006 6099.9800000000005C1664.1300000000006 6100.000000000001 1665.8700000000006 6100.030000000001 1667.2200000000007 6100.96C1667.6900000000007 6101.32 1668.2700000000007 6101.63 1668.5100000000007 6102.2C1668.7900000000006 6102.87 1669.0900000000006 6103.5199999999995 1669.3600000000006 6104.179999999999C1669.7300000000005 6105.099999999999 1669.1000000000006 6106.009999999999 1668.6600000000005 6106.78C1667.4000000000005 6108.96 1664.6700000000005 6110.16 1662.2000000000005 6109.65C1661.2000000000005 6109.429999999999 1660.1800000000005 6109.08 1659.4100000000005 6108.379999999999C1658.8500000000006 6107.919999999999 1658.4600000000005 6107.299999999999 1658.0500000000006 6106.719999999999C1657.9400000000007 6109.4 1658.3600000000006 6112.089999999999 1657.9600000000007 6114.759999999999C1657.6000000000008 6116.049999999999 1656.5900000000008 6116.999999999999 1655.6900000000007 6117.94C1657.0600000000006 6118.089999999999 1658.4100000000008 6118.389999999999 1659.8000000000006 6118.36C1661.0400000000006 6118.32 1662.3600000000006 6118.49 1663.4100000000005 6119.21C1665.0000000000005 6120.24 1666.0400000000006 6121.94 1666.4900000000005 6123.76C1667.3500000000004 6126.38 1667.0700000000004 6129.17 1667.1100000000004 6131.88C1667.0300000000004 6135.85 1667.3800000000003 6139.83 1667.1700000000003 6143.81C1667.1400000000003 6145.070000000001 1667.5600000000004 6146.4400000000005 1668.6200000000003 6147.2300000000005C1669.8200000000004 6148.1900000000005 1671.4000000000003 6148.280000000001 1672.8500000000004 6148.620000000001C1672.9200000000003 6148.930000000001 1672.9100000000003 6149.220000000001 1673.0000000000005 6149.540000000001C1670.8500000000004 6149.52 1668.7000000000005 6149.660000000001 1666.5500000000004 6149.840000000001C1664.4300000000005 6150.100000000001 1662.3400000000004 6149.490000000001 1660.3300000000004 6148.910000000001C1657.8900000000003 6148.02 1655.4800000000005 6147.02 1653.0200000000004 6146.180000000001C1653.3200000000004 6146.8600000000015 1653.7400000000005 6147.530000000002 1654.4100000000005 6147.890000000001C1655.2200000000005 6148.430000000001 1656.2300000000005 6148.490000000002 1657.1600000000005 6148.740000000002C1657.1600000000005 6149.050000000002 1657.1600000000005 6149.350000000001 1657.1700000000005 6149.660000000002C1650.3800000000006 6149.930000000002 1643.5800000000006 6149.740000000002 1636.7900000000004 6149.790000000002C1636.7500000000005 6149.430000000002 1636.8200000000004 6149.120000000002 1636.8100000000004 6148.770000000001C1638.0900000000004 6148.4000000000015 1639.4100000000003 6147.870000000002 1640.2600000000004 6146.800000000001C1641.1700000000005 6145.6500000000015 1641.4800000000005 6144.180000000001 1641.6200000000003 6142.760000000001C1640.1200000000003 6142.190000000001 1638.5800000000004 6141.680000000001 1636.9800000000002 6141.430000000001C1636.6300000000003 6144.4000000000015 1635.3800000000003 6147.6100000000015 1632.5900000000001 6149.0700000000015C1630.66 6150.200000000002 1628.38 6149.9000000000015 1626.2500000000002 6149.910000000002C1620.4300000000003 6149.670000000002 1614.6000000000001 6149.850000000001 1608.7800000000002 6149.790000000002C1608.7300000000002 6149.4000000000015 1608.7100000000003 6149.030000000002 1608.65 6148.6500000000015C1609.95 6148.500000000002 1611.38 6148.380000000001 1612.4 6147.460000000002C1613.41 6146.560000000002 1613.52 6145.060000000002 1613.3200000000002 6143.810000000002C1612.91 6141.110000000002 1612.43 6138.420000000002 1612.2300000000002 6135.700000000003C1608.9000000000003 6135.130000000003 1605.5200000000002 6134.870000000003 1602.2000000000003 6134.250000000003C1601.5900000000004 6137.590000000003 1600.9900000000002 6140.910000000003 1600.4000000000003 6144.250000000003C1600.3300000000004 6144.830000000003 1600.2100000000003 6145.430000000003 1600.2900000000004 6146.010000000003C1600.5400000000004 6146.930000000003 1601.1900000000005 6147.730000000003 1602.0900000000004 6148.080000000003C1603.4400000000003 6148.600000000003 1604.9400000000003 6148.4900000000025 1606.3600000000004 6148.620000000003C1606.3600000000004 6148.930000000003 1606.3600000000004 6149.2400000000025 1606.3600000000004 6149.550000000003C1602.7600000000004 6149.580000000003 1599.1700000000003 6149.510000000003 1595.5700000000004 6149.590000000003C1591.6600000000003 6149.790000000003 1587.7500000000005 6149.590000000003 1583.8400000000004 6149.710000000003C1579.8800000000003 6149.880000000003 1575.9200000000003 6149.760000000003 1571.9700000000005 6149.790000000003C1571.9700000000005 6149.500000000003 1571.9700000000005 6148.920000000003 1571.9700000000005 6148.630000000003C1573.7200000000005 6148.480000000003 1575.5400000000004 6148.590000000003 1577.2100000000005 6147.970000000003C1578.3600000000006 6147.320000000003 1579.2200000000005 6146.060000000003 1579.3300000000004 6144.730000000003C1579.5600000000004 6142.2000000000035 1579.5000000000005 6139.670000000003 1579.5500000000004 6137.140000000003C1579.6600000000003 6135.270000000003 1579.6500000000003 6133.390000000003 1579.6400000000003 6131.520000000003C1575.5200000000004 6131.600000000003 1571.4100000000003 6131.350000000003 1567.3000000000004 6131.400000000003C1565.7000000000005 6131.4100000000035 1564.1000000000004 6131.310000000003 1562.5000000000005 6131.270000000003C1562.4200000000005 6134.980000000003 1562.7000000000005 6138.680000000003 1562.6100000000004 6142.390000000003C1562.6100000000004 6143.790000000003 1562.5200000000004 6145.460000000003 1563.6200000000003 6146.530000000003C1564.7100000000003 6147.920000000004 1566.6100000000004 6148.140000000003 1568.2500000000005 6148.290000000004C1568.2500000000005 6148.750000000004 1568.2500000000005 6149.210000000004 1568.2600000000004 6149.670000000004C1563.2600000000004 6149.680000000004 1558.2700000000004 6149.680000000004 1553.2800000000004 6149.680000000004C1550.8700000000003 6149.630000000004 1548.4700000000005 6149.510000000004 1546.0700000000004 6149.550000000004C1546.0700000000004 6149.170000000004 1546.1000000000004 6148.810000000004 1546.1200000000003 6148.430000000004C1547.8900000000003 6148.510000000004 1549.7200000000003 6147.970000000004 1550.9700000000003 6146.6600000000035C1551.6500000000003 6145.920000000004 1552.1100000000004 6144.990000000003 1552.3600000000004 6144.030000000003C1552.6700000000003 6139.830000000004 1552.4800000000002 6135.6200000000035 1552.5600000000004 6131.420000000004C1551.3700000000003 6131.400000000003 1550.1800000000003 6131.360000000003 1548.9900000000005 6131.280000000003C1548.1400000000006 6135.220000000003 1547.1400000000006 6139.1200000000035 1546.2800000000004 6143.060000000003C1545.7600000000004 6145.180000000003 1545.3400000000004 6147.320000000003 1544.7800000000004 6149.430000000003C1533.5100000000004 6149.440000000003 1522.2400000000005 6149.440000000003 1510.9700000000005 6149.430000000003C1510.9800000000005 6149.150000000003 1510.9800000000005 6148.580000000003 1510.9800000000005 6148.300000000003C1512.5400000000004 6148.220000000003 1514.3200000000004 6148.180000000003 1515.5600000000004 6147.080000000003C1516.7500000000005 6146.200000000003 1517.1600000000003 6144.640000000003 1517.1900000000005 6143.220000000003C1517.2500000000005 6140.230000000003 1517.1900000000005 6137.230000000003 1517.2100000000005 6134.240000000003C1515.5600000000004 6134.260000000004 1513.9300000000005 6134.400000000003 1512.3000000000004 6134.530000000003C1510.8300000000004 6139.360000000003 1509.5300000000004 6144.250000000004 1508.1400000000003 6149.1200000000035C1507.5500000000004 6147.630000000004 1507.2500000000002 6146.060000000003 1506.7800000000004 6144.530000000003C1505.9300000000005 6141.730000000003 1505.1600000000005 6138.9100000000035 1504.3200000000004 6136.110000000003C1502.3100000000004 6136.420000000004 1500.3100000000004 6136.860000000003 1498.2800000000004 6137.040000000004C1498.2600000000004 6139.530000000003 1498.2700000000004 6142.030000000003 1498.4500000000005 6144.520000000003C1498.5500000000004 6145.710000000003 1499.1900000000005 6146.890000000003 1500.3200000000004 6147.380000000003C1502.0100000000004 6148.260000000003 1503.9800000000005 6147.830000000003 1505.7900000000004 6147.920000000003C1505.7800000000004 6148.420000000003 1505.7500000000005 6148.930000000003 1505.7100000000005 6149.430000000003C1500.3600000000006 6149.440000000003 1495.0000000000005 6149.440000000003 1489.6500000000005 6149.440000000003V6148.250000000004C1491.3800000000006 6148.130000000004 1493.4100000000005 6148.670000000004 1494.9000000000005 6147.500000000004C1496.4500000000005 6146.520000000004 1497.0100000000004 6144.600000000004 1496.9300000000005 6142.8700000000035C1496.8600000000006 6141.140000000004 1496.8100000000006 6139.4100000000035 1496.8300000000006 6137.680000000004C1494.4500000000005 6137.8700000000035 1492.0800000000006 6138.220000000004 1489.7400000000007 6138.6600000000035C1488.1600000000008 6139.130000000004 1486.5000000000007 6139.280000000003 1484.9500000000007 6139.850000000003C1481.9200000000008 6140.650000000003 1478.8700000000008 6141.430000000003 1475.8000000000006 6142.110000000003C1475.7400000000007 6143.6200000000035 1475.6500000000005 6145.320000000003 1476.7700000000007 6146.510000000003C1478.1200000000006 6148.020000000003 1480.2800000000007 6148.140000000003 1482.1600000000008 6148.300000000003C1482.1900000000007 6148.580000000003 1482.2500000000007 6149.150000000003 1482.2800000000007 6149.430000000003C1474.8700000000006 6149.440000000003 1467.4600000000007 6149.440000000003 1460.0500000000006 6149.430000000003C1460.0500000000006 6148.960000000003 1460.0500000000006 6148.490000000003 1460.0500000000006 6148.020000000003C1461.8200000000006 6147.860000000003 1464.0400000000006 6148.3700000000035 1465.3600000000006 6146.850000000003C1466.0100000000007 6146.290000000003 1466.0500000000006 6145.400000000003 1466.2100000000005 6144.6200000000035C1463.7300000000005 6145.240000000003 1461.3100000000004 6146.090000000004 1458.8100000000004 6146.650000000003C1456.8400000000004 6147.2000000000035 1454.8800000000003 6147.790000000004 1452.9600000000005 6148.480000000003C1450.9700000000005 6149.270000000003 1448.8400000000006 6149.540000000004 1446.7400000000005 6149.9100000000035C1445.0300000000004 6150.140000000003 1443.1400000000006 6150.2000000000035 1441.4300000000005 6149.860000000003C1440.4500000000005 6149.380000000004 1439.9300000000005 6149.1600000000035 1439.5000000000005 6148.940000000003C1437.5100000000004 6147.590000000003 1436.0200000000004 6146.720000000003 1434.5900000000004 6144.720000000003C1432.9800000000005 6142.410000000003 1432.0500000000004 6139.600000000003 1432.1300000000003 6136.780000000003C1432.1400000000003 6134.900000000003 1431.9900000000002 6133.020000000003 1432.0000000000002 6131.140000000003C1432.3900000000003 6131.150000000003 1432.7700000000002 6131.170000000003 1433.1600000000003 6131.190000000003C1433.2100000000003 6133.210000000004 1433.2700000000002 6135.230000000003 1433.3400000000004 6137.260000000003C1433.3300000000004 6138.050000000003 1433.5500000000004 6138.830000000003 1433.7400000000005 6139.600000000003C1434.3100000000004 6141.530000000003 1435.0100000000004 6143.530000000003 1436.4500000000005 6145.000000000003C1437.5000000000005 6146.180000000003 1438.9100000000005 6147.020000000003 1440.4600000000005 6147.320000000002C1442.4600000000005 6147.710000000003 1444.6800000000005 6147.730000000002 1446.4800000000005 6146.660000000003C1447.9700000000005 6145.890000000002 1448.8100000000004 6144.350000000002 1449.3300000000004 6142.820000000002C1450.0300000000004 6140.800000000002 1449.8400000000004 6138.630000000003 1449.8700000000003 6136.540000000003C1449.8200000000004 6130.980000000002 1449.9300000000003 6125.420000000003 1449.8100000000004 6119.860000000002C1449.4000000000003 6120.570000000002 1449.2100000000005 6121.390000000002 1448.8400000000004 6122.130000000003C1448.0500000000004 6123.840000000003 1446.7100000000003 6125.360000000002 1444.9700000000005 6126.170000000003C1443.0400000000004 6126.800000000003 1440.9700000000005 6126.510000000003 1438.9700000000005 6126.650000000002C1437.9900000000005 6126.720000000002 1437.0400000000004 6127.360000000002 1436.6700000000005 6128.270000000002C1436.3900000000006 6129.130000000002 1436.2700000000004 6130.040000000003 1435.9300000000005 6130.890000000002C1435.3600000000006 6128.2400000000025 1434.9200000000005 6125.340000000002 1436.0100000000004 6122.770000000002C1436.7300000000005 6120.860000000002 1438.5400000000004 6119.630000000002 1440.4000000000005 6118.980000000002C1442.3200000000006 6118.270000000002 1444.3800000000006 6118.400000000002 1446.3900000000006 6118.360000000002C1447.8700000000006 6118.300000000002 1449.3800000000006 6117.320000000002 1449.6800000000005 6115.820000000002C1450.0600000000006 6113.670000000003 1449.7900000000004 6111.470000000002 1449.8700000000006 6109.300000000002C1449.8300000000006 6107.210000000002 1449.9600000000005 6104.910000000002 1448.8400000000006 6103.040000000002C1448.2100000000005 6101.880000000002 1446.8900000000006 6101.380000000002 1445.7100000000005 6101.020000000001C1444.2300000000005 6100.590000000001 1442.6100000000006 6100.920000000001 1441.3400000000006 6101.760000000001C1440.1300000000006 6102.470000000001 1439.2300000000007 6103.560000000001 1438.2100000000005 6104.490000000001C1437.4100000000005 6105.2300000000005 1437.0400000000004 6106.27 1436.6700000000005 6107.260000000001C1435.4500000000005 6110.830000000001 1434.5100000000004 6114.540000000001 1434.3600000000006 6118.330000000001C1434.0500000000006 6118.340000000001 1433.7300000000005 6118.360000000001 1433.4200000000005 6118.380000000001C1433.2400000000005 6115.520000000001 1433.3600000000006 6112.6500000000015 1433.3300000000006 6109.780000000001C1433.3500000000006 6105.6 1433.2800000000007 6101.420000000001 1433.3600000000006 6097.240000000001C1433.4300000000005 6093.070000000001 1433.3600000000006 6097.240000000001 1433.3600000000006 6097.240000000001ZM1528.11 6103.56C1527.56 6104.54 1527.2199999999998 6105.650000000001 1527.27 6106.79C1527.28 6114.95 1527.27 6123.12 1527.28 6131.28C1530.66 6130.88 1534.08 6130.83 1537.45 6130.32C1537.45 6122.71 1537.47 6115.11 1537.45 6107.5C1537.43 6105.48 1536.88 6103.18 1535.1000000000001 6101.98C1532.9 6100.349999999999 1529.4900000000002 6101.299999999999 1528.1100000000001 6103.5599999999995C1526.73 6105.82 1528.1100000000001 6103.5599999999995 1528.1100000000001 6103.5599999999995ZM1476.11 6101.56C1476.12 6107.56 1475.86 6113.570000000001 1475.86 6119.570000000001C1475.76 6122.51 1475.6899999999998 6125.450000000001 1475.78 6128.39C1477.11 6128.39 1478.48 6128.51 1479.77 6128.12C1480.74 6127.82 1481.33 6126.7699999999995 1481.25 6125.79C1481.28 6118.82 1481.24 6111.85 1481.27 6104.88C1481.19 6104.03 1481.47 6102.95 1480.69 6102.34C1479.5 6101.1 1477.6200000000001 6101.49 1476.1100000000001 6101.56C1474.5900000000001 6101.620000000001 1476.1100000000001 6101.56 1476.1100000000001 6101.56ZM1607.41 6107.47C1606.17 6113.97 1605 6120.4800000000005 1603.76 6126.9800000000005C1606.07 6126.9800000000005 1608.39 6126.9800000000005 1610.7 6126.97C1610.5900000000001 6125.77 1610.32 6124.58 1610.1100000000001 6123.39C1609.3000000000002 6118.070000000001 1608.2600000000002 6112.780000000001 1607.41 6107.47C1606.5500000000002 6102.16 1607.41 6107.47 1607.41 6107.47ZM1498.45 6114.75C1498.3300000000002 6121.74 1498.42 6128.74 1498.4 6135.74C1500.3100000000002 6135.389999999999 1502.22 6135.05 1504.1100000000001 6134.639999999999C1503.3200000000002 6132.249999999999 1502.8700000000001 6129.759999999999 1501.95 6127.419999999999C1501.71 6126.609999999999 1501.65 6125.749999999999 1501.38 6124.949999999999C1500.4 6121.549999999999 1499.43 6118.149999999999 1498.45 6114.749999999999C1497.47 6111.339999999999 1498.45 6114.749999999999 1498.45 6114.749999999999ZM1514.96 6123.9C1514.1100000000001 6126.96 1513.26 6130.009999999999 1512.41 6133.07C1514 6132.9 1515.5900000000001 6132.75 1517.18 6132.53C1517.23 6126.849999999999 1517.21 6121.16 1517.19 6115.48C1516.3500000000001 6118.259999999999 1515.69 6121.089999999999 1514.96 6123.9C1514.23 6126.71 1514.96 6123.9 1514.96 6123.9ZM1551.62 6119.94C1550.8999999999999 6123.29 1550.02 6126.599999999999 1549.3899999999999 6129.969999999999C1550.4399999999998 6129.969999999999 1551.4799999999998 6129.959999999999 1552.53 6129.929999999999C1552.57 6125.379999999999 1552.6 6120.839999999999 1552.5 6116.299999999999C1552.12 6117.489999999999 1551.95 6118.739999999999 1551.62 6119.94C1551.29 6121.15 1551.62 6119.94 1551.62 6119.94ZM1638.68 6120.13C1637.3300000000002 6121.04 1636.77 6122.79 1636.8 6124.35C1636.79 6129.52 1636.79 6134.700000000001 1636.8 6139.870000000001C1638.47 6140.31 1640.1499999999999 6140.710000000001 1641.82 6141.110000000001C1641.84 6133.920000000001 1641.83 6126.72 1641.83 6119.52C1640.75 6119.27 1639.6 6119.55 1638.6799999999998 6120.13C1637.7599999999998 6120.72 1638.6799999999998 6120.13 1638.6799999999998 6120.13ZM1651.78 6119.53C1651.77 6121.679999999999 1651.74 6123.83 1651.83 6125.969999999999C1651.99 6129.7699999999995 1651.8 6133.57 1651.9399999999998 6137.369999999999C1652.0599999999997 6139.649999999999 1651.9799999999998 6141.939999999999 1652.0599999999997 6144.229999999999C1654.2599999999998 6145.039999999999 1656.3999999999996 6146.009999999998 1658.6199999999997 6146.789999999999C1658.0899999999997 6145.589999999999 1657.0599999999997 6144.539999999999 1656.9599999999996 6143.189999999999C1656.7599999999995 6142.049999999998 1656.5599999999995 6140.909999999999 1656.5699999999995 6139.759999999998C1656.5499999999995 6134.579999999998 1656.5899999999995 6129.409999999998 1656.5599999999995 6124.229999999999C1656.5799999999995 6122.919999999998 1656.2499999999995 6121.539999999999 1655.3499999999995 6120.549999999998C1654.4099999999994 6119.609999999999 1653.0199999999995 6119.519999999999 1651.7799999999995 6119.529999999998C1650.5299999999995 6119.549999999998 1651.7799999999995 6119.529999999998 1651.7799999999995 6119.529999999998ZM1602.75 6132.69C1605.75 6133.179999999999 1608.74 6133.69 1611.76 6134.049999999999C1611.5 6132.299999999999 1611.23 6130.549999999999 1611.14 6128.779999999999C1608.8200000000002 6128.869999999999 1606.51 6128.579999999999 1604.2 6128.539999999999C1603.55 6128.189999999999 1603.39 6128.939999999999 1603.31 6129.3099999999995C1603.05 6130.429999999999 1602.94 6131.57 1602.75 6132.69ZM1546.66 6131.16C1546.7 6131.889999999999 1546.74 6132.62 1546.8300000000002 6133.349999999999C1547.15 6132.62 1547.41 6131.879999999999 1547.7500000000002 6131.16C1547.4000000000003 6131.16 1547.0000000000002 6131.15 1546.6600000000003 6131.16C1546.3300000000004 6131.18 1546.6600000000003 6131.16 1546.6600000000003 6131.16ZM1527.28 6132.73C1527.27 6135.87 1527.27 6139.009999999999 1527.26 6142.15C1527.3 6143.07 1527.19 6144.049999999999 1527.64 6144.9C1528.13 6145.98 1528.7700000000002 6147.19 1529.97 6147.62C1531.41 6148.2699999999995 1533.1200000000001 6148.3099999999995 1534.6100000000001 6147.78C1535.67 6147.41 1536.5300000000002 6146.55 1537.0300000000002 6145.5599999999995C1537.4800000000002 6144.44 1537.4500000000003 6143.209999999999 1537.4700000000003 6142.03C1537.4600000000003 6138.639999999999 1537.4600000000003 6135.25 1537.4500000000003 6131.86C1534.0600000000002 6132.139999999999 1530.6700000000003 6132.48 1527.2800000000002 6132.73C1523.88 6132.98 1527.2800000000002 6132.73 1527.2800000000002 6132.73ZM1589.46 6132.69C1589.66 6135.719999999999 1589.55 6138.759999999999 1589.58 6141.799999999999C1589.58 6142.779999999999 1589.75 6143.7699999999995 1590.01 6144.719999999999C1590.44 6146.24 1591.61 6147.539999999999 1593.1 6148.079999999999C1594.6399999999999 6148.549999999999 1596.6 6148.599999999999 1597.8 6147.359999999999C1599.11 6145.839999999998 1599.22 6143.759999999998 1599.6 6141.8899999999985C1599.9499999999998 6139.249999999998 1600.6499999999999 6136.669999999998 1600.9699999999998 6134.019999999999C1598.4099999999999 6133.3899999999985 1595.7799999999997 6133.159999999999 1593.1699999999998 6132.969999999998C1591.9399999999998 6132.839999999998 1590.6999999999998 6132.669999999998 1589.4599999999998 6132.689999999999C1588.2199999999998 6132.709999999999 1589.4599999999998 6132.689999999999 1589.4599999999998 6132.689999999999ZM1623.28 6138.16C1623.98 6141.2 1624.52 6144.2699999999995 1625.17 6147.32C1625.42 6147.83 1626.1100000000001 6147.7699999999995 1626.5600000000002 6147.9C1627.15 6145.08 1626.7400000000002 6142.179999999999 1626.8400000000001 6139.33C1625.66 6138.92 1624.4900000000002 6138.48 1623.2800000000002 6138.16ZM1444.47 6155.1C1445.64 6155.04 1446.77 6154.77 1447.92 6154.59C1447.0500000000002 6157.71 1446.0900000000001 6160.81 1445.19 6163.92C1446.46 6162.59 1447.24 6160.6900000000005 1449 6159.91C1449.53 6159.66 1450.25 6159.67 1450.67 6160.11C1451.0700000000002 6160.5199999999995 1450.98 6161.2 1451.02 6161.719999999999C1450.76 6163.959999999999 1450.1 6166.209999999999 1448.77 6168.0599999999995C1448.23 6168.83 1447.3899999999999 6169.49 1446.3899999999999 6169.379999999999C1445.81 6169.239999999999 1445.12 6168.94 1444.9599999999998 6168.299999999999C1444.9199999999998 6167.779999999999 1445.3999999999999 6167.289999999999 1445.8999999999999 6167.239999999999C1446.3899999999999 6167.379999999999 1446.6499999999999 6167.899999999999 1447.11 6168.069999999999C1447.33 6168.069999999999 1447.53 6167.959999999999 1447.6699999999998 6167.799999999998C1448.3799999999999 6166.8499999999985 1448.6499999999999 6165.669999999998 1448.9599999999998 6164.559999999999C1449.3099999999997 6163.3899999999985 1449.3799999999999 6162.159999999999 1449.4099999999999 6160.949999999999C1448.8899999999999 6160.909999999999 1448.35 6161.039999999999 1447.9499999999998 6161.3899999999985C1446.8199999999997 6162.319999999999 1446.1 6163.6399999999985 1445.3199999999997 6164.869999999998C1444.5499999999997 6166.009999999998 1444.3199999999997 6167.379999999998 1443.8499999999997 6168.659999999998C1443.3699999999997 6168.659999999998 1442.8799999999997 6168.659999999998 1442.3999999999996 6168.669999999998C1443.1099999999997 6165.699999999998 1444.0099999999995 6162.779999999998 1444.9499999999996 6159.879999999998C1445.2499999999995 6158.469999999998 1445.8499999999997 6157.109999999998 1445.8399999999997 6155.649999999999C1445.3899999999996 6155.5999999999985 1444.9299999999996 6155.549999999998 1444.4699999999998 6155.499999999999C1444.4699999999998 6155.369999999999 1444.4699999999998 6155.229999999999 1444.4699999999998 6155.099999999999ZM1471.42 6155.15C1471.93 6155.0199999999995 1472.46 6154.95 1472.99 6154.95C1474.03 6155.01 1474.95 6155.58 1475.98 6155.75C1476.39 6155.64 1476.6 6155.24 1476.85 6154.93C1476.9299999999998 6154.950000000001 1477.09 6154.990000000001 1477.1799999999998 6155.01C1476.9599999999998 6155.96 1476.62 6156.89 1476.5199999999998 6157.87C1476.4199999999998 6158.26 1476.3699999999997 6158.86 1476.2399999999998 6159.45C1476.1799999999998 6159.79 1475.8399999999997 6159.61 1475.8399999999997 6159.61C1475.7399999999998 6158.719999999999 1475.9399999999996 6157.66 1475.3599999999997 6156.87C1474.3399999999997 6155.41 1471.6899999999996 6155.26 1470.8099999999997 6156.93C1470.6699999999996 6157.55 1470.5799999999997 6158.29 1470.9499999999998 6158.860000000001C1471.9699999999998 6160.52 1473.6699999999998 6161.59 1474.8099999999997 6163.150000000001C1475.7699999999998 6164.860000000001 1475.2199999999998 6167.450000000001 1473.3499999999997 6168.31C1472.0599999999997 6169.17 1470.4099999999996 6169.080000000001 1468.9999999999998 6168.59C1468.4799999999998 6168.42 1467.9499999999998 6168.21 1467.3899999999999 6168.2300000000005C1466.9299999999998 6168.3 1466.7199999999998 6168.6900000000005 1466.52 6169.040000000001C1466.52 6169.040000000001 1466.36 6169.000000000001 1466.29 6169.000000000001C1466.43 6168.160000000001 1466.6499999999999 6167.330000000001 1466.87 6166.510000000001C1467.06 6165.830000000001 1467.3999999999999 6163.770000000001 1467.3999999999999 6163.770000000001L1467.6699999999998 6163.8200000000015C1467.7299999999998 6165.000000000002 1467.6399999999999 6166.270000000001 1468.4199999999998 6167.250000000002C1469.5099999999998 6168.470000000002 1471.7599999999998 6168.660000000002 1472.87 6167.370000000002C1473.3999999999999 6166.670000000002 1473.62 6165.710000000002 1473.34 6164.8600000000015C1472.4299999999998 6162.790000000002 1470.31 6161.6100000000015 1469.1999999999998 6159.670000000002C1468.2899999999997 6157.8600000000015 1469.61 6155.690000000002 1471.4199999999998 6155.1500000000015ZM1433.7 6155.18C1437.1000000000001 6155.17 1440.5 6155.16 1443.9 6155.18C1443.45 6156.1 1443.2 6157.81 1442.97 6159.02C1442.97 6159.02 1442.78 6159 1442.53 6158.9800000000005C1442.46 6158.290000000001 1442.6 6157.59 1442.48 6156.910000000001C1442.42 6156.550000000001 1442.1100000000001 6156.250000000001 1441.74 6156.210000000001C1440.94 6156.110000000001 1440.13 6156.130000000001 1439.33 6156.110000000001C1438.71 6158.330000000001 1438.03 6160.52 1437.4199999999998 6162.7300000000005C1436.9399999999998 6164.330000000001 1436.36 6165.92 1436.2099999999998 6167.59C1436.3899999999999 6168.38 1437.3899999999999 6168.26 1438.0099999999998 6168.360000000001C1437.9899999999998 6168.43 1437.9599999999998 6168.56 1437.9399999999998 6168.630000000001C1435.9999999999998 6168.690000000001 1434.0599999999997 6168.680000000001 1432.12 6168.660000000001C1432.1299999999999 6168.6 1432.1399999999999 6168.460000000001 1432.1499999999999 6168.39C1432.7299999999998 6168.22 1433.4499999999998 6168.280000000001 1433.8999999999999 6167.820000000001C1434.1599999999999 6167.52 1434.31 6167.150000000001 1434.4199999999998 6166.780000000001C1435.05 6164.550000000001 1435.6699999999998 6162.320000000001 1436.3799999999999 6160.110000000001C1436.9699999999998 6158.84 1437.1599999999999 6157.43 1437.56 6156.1C1436.47 6156.1900000000005 1435.22 6155.990000000001 1434.29 6156.72C1433.55 6157.12 1433.47 6158.14 1433.18 6158.83C1432.99 6158.88 1432.78 6158.84 1432.5900000000001 6158.9C1433.0500000000002 6157.679999999999 1433.2700000000002 6156.4 1433.7 6155.179999999999ZM1514.86 6155.21C1516.6499999999999 6155.15 1518.4399999999998 6155.16 1520.2199999999998 6155.18C1520.1899999999998 6155.3 1520.1699999999998 6155.42 1520.1399999999999 6155.55C1519.61 6155.7 1518.9799999999998 6155.75 1518.58 6156.18C1518 6156.89 1517.8999999999999 6157.81 1517.58 6158.64C1517.26 6159.490000000001 1517.08 6160.38 1516.85 6161.26C1518.8899999999999 6161.27 1520.9399999999998 6161.26 1522.98 6161.27C1523.44 6159.610000000001 1524.1200000000001 6157.9800000000005 1524.27 6156.25C1524.11 6155.58 1523.25 6155.71 1522.71 6155.59C1522.73 6155.46 1522.75 6155.34 1522.77 6155.21C1524.6 6155.15 1526.43 6155.16 1528.26 6155.18C1528.23 6155.3 1528.19 6155.41 1528.16 6155.530000000001C1527.53 6155.6900000000005 1526.73 6155.800000000001 1526.3700000000001 6156.410000000001C1525.98 6157.070000000001 1525.8600000000001 6157.830000000001 1525.63 6158.550000000001C1524.89 6161.0700000000015 1524.0900000000001 6163.580000000001 1523.3700000000001 6166.1100000000015C1523.2800000000002 6166.710000000002 1522.8700000000001 6167.490000000002 1523.3600000000001 6168.020000000001C1523.7500000000002 6168.210000000001 1524.21 6168.260000000001 1524.64 6168.370000000002C1524.6200000000001 6168.430000000002 1524.5900000000001 6168.560000000001 1524.5800000000002 6168.630000000002C1522.8400000000001 6168.690000000002 1521.1000000000001 6168.670000000002 1519.3600000000001 6168.670000000002C1519.3700000000001 6168.580000000002 1519.3700000000001 6168.410000000002 1519.38 6168.330000000002C1519.8300000000002 6168.250000000002 1520.2700000000002 6168.180000000002 1520.73 6168.100000000002C1521.83 6166.2400000000025 1522.19 6164.050000000002 1522.76 6161.9900000000025C1520.72 6161.970000000002 1518.68 6161.970000000002 1516.64 6161.9900000000025C1516.22 6162.870000000003 1515.98 6163.810000000002 1515.7700000000002 6164.760000000003C1515.4400000000003 6165.830000000003 1515.13 6166.930000000003 1515.2300000000002 6168.060000000003C1515.6800000000003 6168.150000000003 1516.1400000000003 6168.260000000003 1516.5900000000001 6168.350000000003C1516.6000000000001 6168.430000000003 1516.6100000000001 6168.590000000003 1516.6200000000001 6168.670000000003C1514.8300000000002 6168.670000000003 1513.0500000000002 6168.700000000003 1511.2600000000002 6168.640000000003C1511.2600000000002 6168.580000000003 1511.2700000000002 6168.460000000003 1511.2800000000002 6168.400000000003C1511.9800000000002 6168.180000000003 1512.9600000000003 6168.140000000003 1513.2200000000003 6167.320000000003C1513.7000000000003 6165.860000000003 1514.1200000000003 6164.380000000004 1514.5300000000002 6162.900000000003C1514.7500000000002 6161.900000000003 1515.3100000000002 6161.000000000004 1515.4500000000003 6159.980000000003C1515.6100000000004 6158.680000000003 1516.3800000000003 6157.510000000003 1516.2100000000003 6156.170000000003C1516.0500000000002 6155.570000000002 1515.2800000000002 6155.710000000003 1514.8000000000002 6155.590000000003C1514.8200000000002 6155.460000000003 1514.8400000000001 6155.340000000003 1514.8600000000001 6155.210000000003ZM1606.62 6155.17C1607.75 6155.17 1608.8799999999999 6155.17 1610.01 6155.2C1610.48 6158.79 1610.71 6162.41 1611.33 6165.99C1612.02 6165 1612.6699999999998 6163.99 1613.4099999999999 6163.04C1614.7399999999998 6161.36 1615.83 6159.51 1617.2499999999998 6157.91C1617.9099999999999 6157.03 1618.4499999999998 6156.07 1619.0999999999997 6155.18C1620.1399999999996 6155.17 1621.1899999999996 6155.18 1622.2399999999998 6155.200000000001C1622.2599999999998 6155.330000000001 1622.2799999999997 6155.460000000001 1622.3099999999997 6155.590000000001C1621.5699999999997 6155.730000000001 1620.5099999999998 6155.680000000001 1620.2899999999997 6156.6100000000015C1619.4399999999998 6158.790000000002 1618.9499999999998 6161.080000000002 1618.2199999999998 6163.290000000002C1617.8199999999997 6164.730000000001 1617.2399999999998 6166.180000000002 1617.2799999999997 6167.700000000002C1617.4799999999998 6168.300000000002 1618.3199999999997 6168.180000000001 1618.7999999999997 6168.390000000001C1618.8099999999997 6168.460000000001 1618.8199999999997 6168.590000000001 1618.8299999999997 6168.660000000002C1616.9499999999996 6168.680000000002 1615.0699999999997 6168.680000000002 1613.1899999999996 6168.660000000002C1613.1899999999996 6168.600000000001 1613.1999999999996 6168.460000000002 1613.1999999999996 6168.390000000001C1613.7899999999995 6168.310000000001 1614.5299999999995 6168.310000000001 1614.9299999999996 6167.770000000001C1615.5499999999995 6166.980000000001 1615.6599999999996 6165.930000000001 1615.9799999999996 6165.010000000001C1616.6099999999997 6162.660000000001 1617.3299999999995 6160.330000000001 1617.9299999999996 6157.980000000001C1616.4799999999996 6159.710000000001 1615.3399999999997 6161.670000000001 1613.9499999999996 6163.450000000002C1612.7099999999996 6165.170000000002 1611.4699999999996 6166.890000000001 1610.2899999999995 6168.6500000000015C1610.1399999999994 6168.660000000002 1609.9899999999996 6168.660000000002 1609.8399999999995 6168.670000000002C1609.3699999999994 6165.1100000000015 1609.0799999999995 6161.540000000002 1608.5799999999995 6157.980000000002C1607.8099999999995 6160.630000000002 1606.9499999999994 6163.2400000000025 1606.2299999999996 6165.900000000002C1606.1099999999997 6166.520000000002 1605.7899999999995 6167.180000000002 1606.0099999999995 6167.820000000002C1606.2799999999995 6168.2800000000025 1606.9499999999996 6168.210000000003 1607.4199999999996 6168.360000000002C1607.3799999999997 6168.460000000003 1607.3299999999997 6168.560000000002 1607.2899999999995 6168.650000000002C1605.8099999999995 6168.670000000003 1604.3399999999995 6168.670000000003 1602.8599999999994 6168.660000000003C1602.8899999999994 6168.600000000002 1602.9399999999994 6168.470000000003 1602.9599999999994 6168.410000000003C1603.4599999999994 6168.2800000000025 1604.0299999999993 6168.270000000002 1604.4699999999993 6167.970000000003C1604.7499999999993 6167.690000000003 1604.9799999999993 6167.350000000003 1605.1299999999994 6166.980000000003C1605.8699999999994 6164.600000000003 1606.4699999999993 6162.170000000003 1607.2699999999995 6159.810000000003C1607.7999999999995 6158.650000000003 1607.8799999999994 6157.350000000003 1608.1899999999996 6156.1200000000035C1607.6299999999997 6155.890000000004 1607.0599999999995 6155.740000000003 1606.4799999999996 6155.590000000004C1606.5299999999995 6155.4500000000035 1606.5699999999995 6155.310000000004 1606.6199999999997 6155.170000000004ZM1562.2 6155.83C1562.72 6155.7 1563.28 6156.08 1563.53 6156.29C1563.5 6156.81 1563.41 6157.45 1562.8999999999999 6157.72C1562.33 6157.9800000000005 1561.58 6157.64 1561.4799999999998 6157.01C1561.2799999999997 6156.49 1561.7199999999998 6155.99 1562.1999999999998 6155.83ZM1480.25 6158.58C1480.71 6158.09 1480.96 6157.39 1481.61 6157.09C1481.4199999999998 6158.05 1481.1299999999999 6158.99 1480.8899999999999 6159.93C1481.4099999999999 6159.9400000000005 1481.9299999999998 6159.950000000001 1482.4499999999998 6159.950000000001C1482.3899999999999 6160.130000000001 1482.3199999999997 6160.31 1482.2599999999998 6160.490000000001C1481.7399999999998 6160.510000000001 1481.2099999999998 6160.540000000001 1480.6899999999998 6160.570000000001C1480.07 6163.06 1479.0099999999998 6165.450000000001 1478.6399999999999 6168.000000000001C1479.6799999999998 6167.870000000001 1480.11 6166.780000000001 1480.9499999999998 6166.310000000001C1480.6899999999998 6167.3600000000015 1479.86 6168.240000000002 1478.8999999999999 6168.700000000002C1478.4199999999998 6168.740000000002 1477.7599999999998 6169.000000000002 1477.36 6168.6100000000015C1476.9399999999998 6168.050000000001 1477.1799999999998 6167.290000000002 1477.33 6166.680000000001C1477.82 6164.620000000001 1478.6899999999998 6162.670000000001 1479.01 6160.560000000001C1478.67 6160.560000000001 1477.99 6160.540000000001 1477.65 6160.530000000002C1477.66 6160.460000000002 1477.68 6160.310000000001 1477.69 6160.230000000001C1478.66 6159.890000000001 1479.5900000000001 6159.370000000002 1480.25 6158.580000000002ZM1495.75 6158.87C1496.28 6158.29 1496.6 6157.45 1497.38 6157.15C1497.21 6158.089999999999 1496.94 6159.009999999999 1496.69 6159.929999999999C1497.17 6159.929999999999 1497.66 6159.94 1498.15 6159.95C1498.0800000000002 6160.13 1498.02 6160.3099999999995 1497.96 6160.49C1497.47 6160.51 1496.97 6160.54 1496.48 6160.5599999999995C1495.88 6163.049999999999 1494.8600000000001 6165.419999999999 1494.4 6167.94C1495.3700000000001 6167.9 1495.94 6166.99 1496.5500000000002 6166.36C1496.6000000000001 6166.44 1496.7100000000003 6166.589999999999 1496.7600000000002 6166.66C1496.1500000000003 6167.389999999999 1495.6200000000001 6168.3 1494.7100000000003 6168.7C1494.2100000000003 6168.76 1493.2500000000002 6169.0599999999995 1493.0400000000002 6168.38C1492.9500000000003 6166.52 1493.7000000000003 6164.77 1494.2700000000002 6163.03C1494.4600000000003 6162.21 1494.63 6161.38 1494.8300000000002 6160.5599999999995C1494.4900000000002 6160.5599999999995 1493.8100000000002 6160.539999999999 1493.4700000000003 6160.539999999999C1493.4800000000002 6160.449999999999 1493.4900000000002 6160.279999999999 1493.4900000000002 6160.199999999999C1494.3000000000002 6159.869999999999 1495.1700000000003 6159.549999999999 1495.7500000000002 6158.869999999999ZM1567 6159.06C1567.57 6158.490000000001 1568.02 6157.820000000001 1568.5 6157.18C1568.58 6157.200000000001 1568.75 6157.25 1568.83 6157.27C1568.6299999999999 6158.17 1568.3799999999999 6159.05 1568.1299999999999 6159.9400000000005C1568.62 6159.9400000000005 1569.1 6159.950000000001 1569.59 6159.960000000001C1569.56 6160.130000000001 1569.54 6160.310000000001 1569.53 6160.490000000001C1569 6160.52 1568.48 6160.550000000001 1567.96 6160.590000000001C1567.3600000000001 6162.530000000001 1566.78 6164.470000000001 1566.23 6166.420000000001C1566.08 6166.950000000001 1565.95 6167.500000000001 1565.93 6168.050000000001C1566.88 6167.780000000001 1567.43 6166.880000000001 1568.21 6166.330000000001C1567.97 6167.360000000001 1567.08 6168.120000000001 1566.25 6168.700000000001C1565.62 6168.900000000001 1564.91 6168.820000000001 1564.35 6168.460000000001C1564.4599999999998 6166.530000000001 1565.1399999999999 6164.700000000001 1565.75 6162.880000000001C1565.92 6162.120000000001 1566.11 6161.370000000001 1566.31 6160.620000000001C1565.77 6160.570000000001 1565.24 6160.530000000001 1564.71 6160.4800000000005C1565.44 6159.950000000001 1566.3500000000001 6159.6900000000005 1567 6159.06ZM1459.65 6159.81C1460.17 6160.06 1460.96 6160.400000000001 1460.77 6161.150000000001C1460.84 6161.9400000000005 1460.34 6162.64 1459.75 6163.120000000001C1458.28 6164.290000000001 1456.37 6164.81 1454.51 6164.890000000001C1454.61 6165.580000000001 1454.34 6166.440000000001 1454.89 6167.000000000001C1455.3700000000001 6167.740000000001 1456.3500000000001 6167.890000000001 1457.15 6167.810000000001C1458.22 6167.580000000002 1459.0400000000002 6166.830000000002 1459.95 6166.270000000001C1459.98 6166.3600000000015 1460.04 6166.550000000001 1460.07 6166.630000000001C1459.1 6167.460000000001 1458.1 6168.350000000001 1456.85 6168.700000000001C1455.8999999999999 6168.77 1454.77 6169.06 1453.9399999999998 6168.43C1452.6 6167.52 1452.5499999999997 6165.6900000000005 1453.0299999999997 6164.3C1453.5699999999997 6162.38 1455.1299999999997 6160.84 1456.9499999999998 6160.09C1457.0259499999997 6160.0587000000005 1457.0955599999998 6160.03001 1457.1592299999998 6160.00378C1457.9472299999998 6159.70101 1458.8238899999997 6159.60807 1459.6499999999999 6159.81ZM1456.9 6160.75C1455.77 6161.68 1454.89 6162.95 1454.6100000000001 6164.4C1455.8400000000001 6164.259999999999 1457.17 6164.03 1458.1200000000001 6163.17C1458.99 6162.56 1459.47 6161.56 1459.41 6160.51C1458.5900000000001 6160.26 1457.6000000000001 6160.18 1456.9 6160.75ZM1484.83 6161.36C1485.71 6160.41 1486.9499999999998 6159.599999999999 1488.31 6159.759999999999C1488.83 6159.94 1489.19 6160.409999999999 1489.57 6160.799999999999C1489.6799999999998 6160.529999999999 1489.8 6160.259999999999 1489.9099999999999 6159.989999999999C1490.4199999999998 6159.939999999999 1490.9299999999998 6159.8499999999985 1491.4399999999998 6159.789999999999C1490.7999999999997 6162.529999999999 1489.6999999999998 6165.149999999999 1489.2599999999998 6167.929999999999C1490.0799999999997 6167.749999999999 1490.6199999999997 6167.079999999999 1491.1599999999999 6166.499999999999C1491.1699999999998 6167.549999999999 1490.11 6168.219999999999 1489.32 6168.699999999999C1488.8 6168.779999999999 1487.8799999999999 6169.059999999999 1487.6899999999998 6168.3499999999985C1487.58 6167.659999999999 1487.9499999999998 6166.969999999998 1487.9799999999998 6166.269999999999C1487.1499999999999 6167.279999999999 1486.2199999999998 6168.309999999999 1484.9399999999998 6168.749999999998C1484.37 6168.759999999998 1483.6499999999999 6168.989999999998 1483.1599999999999 6168.559999999999C1482.34 6167.879999999998 1482.29 6166.669999999998 1482.4899999999998 6165.699999999999C1482.7699999999998 6164.039999999999 1483.7599999999998 6162.609999999999 1484.8299999999997 6161.359999999999C1485.8999999999996 6160.109999999999 1484.8299999999997 6161.359999999999 1484.8299999999997 6161.359999999999ZM1486.16 6161.25C1484.99 6162.59 1484.23 6164.29 1484.0500000000002 6166.06C1484.0700000000002 6166.63 1484.0600000000002 6167.410000000001 1484.6900000000003 6167.64C1485.5500000000002 6167.89 1486.3400000000004 6167.360000000001 1486.9000000000003 6166.77C1488.3600000000004 6165.320000000001 1489.4100000000003 6163.290000000001 1489.1200000000003 6161.1900000000005C1488.9200000000003 6160.51 1488.2500000000005 6160.06 1487.5400000000004 6160.360000000001C1486.9800000000005 6160.460000000001 1486.5400000000004 6160.860000000001 1486.1600000000003 6161.250000000001ZM1505.2 6159.78C1505.73 6159.98 1506.42 6160.3 1506.49 6160.95C1506.67 6161.87 1505.91 6162.57 1505.32 6163.15C1503.8999999999999 6164.37 1501.99 6164.82 1500.1499999999999 6164.9C1500.11 6165.8099999999995 1500.04 6167.03 1501.03 6167.48C1502.62 6168.45 1504.31 6167.169999999999 1505.62 6166.29C1505.6399999999999 6166.38 1505.6899999999998 6166.55 1505.7199999999998 6166.63C1504.5799999999997 6167.6 1503.3399999999997 6168.75 1501.7499999999998 6168.79C1501.1599999999999 6168.7699999999995 1500.5199999999998 6168.92 1499.9699999999998 6168.65C1498.7999999999997 6168.12 1498.1399999999999 6166.759999999999 1498.3299999999997 6165.509999999999C1498.4299999999996 6164.119999999999 1499.2599999999998 6162.94 1500.0799999999997 6161.869999999999C1501.3099999999997 6160.409999999999 1503.2599999999998 6159.439999999999 1505.1999999999996 6159.779999999999ZM1500.08 6161.87C1500.8999999999999 6160.8 1500.08 6161.87 1500.08 6161.87ZM1502.28 6160.95C1501.2 6161.8099999999995 1500.59 6163.099999999999 1500.25 6164.4C1501.58 6164.24 1502.99 6163.96 1503.98 6163.009999999999C1504.71 6162.44 1505.05 6161.539999999999 1505.08 6160.639999999999C1504.21 6160.099999999999 1503.02 6160.2699999999995 1502.28 6160.95ZM1533.27 6159.72C1534.02 6159.6900000000005 1534.91 6160.05 1535.12 6160.84C1535.4899999999998 6161.82 1534.6499999999999 6162.6 1534.02 6163.21C1532.55 6164.38 1530.6299999999999 6164.82 1528.79 6164.89C1528.85 6165.54 1528.83 6166.240000000001 1529.09 6166.860000000001C1529.6299999999999 6167.630000000001 1530.6399999999999 6167.990000000001 1531.56 6167.77C1532.6399999999999 6167.52 1533.49 6166.740000000001 1534.49 6166.290000000001C1534.03 6167.280000000001 1532.98 6167.790000000001 1532.11 6168.350000000001C1530.8 6168.920000000001 1529.06 6169.170000000001 1527.9099999999999 6168.1500000000015C1527.3899999999999 6167.560000000001 1527.1699999999998 6166.770000000001 1527.09 6166.000000000002C1527.1 6164.260000000002 1527.9599999999998 6162.590000000002 1529.23 6161.420000000002C1530.3600000000001 6160.490000000002 1531.74 6159.630000000002 1533.27 6159.720000000002ZM1529.23 6161.42C1529.23 6161.42 1530.49 6160.25 1529.23 6161.42ZM1531.67 6160.51C1530.23 6161.320000000001 1529.3500000000001 6162.85 1528.94 6164.400000000001C1530.47 6164.26 1532.15 6163.860000000001 1533.14 6162.570000000001C1533.6200000000001 6162.030000000001 1534.01 6161.080000000001 1533.47 6160.460000000001C1532.93 6160.170000000001 1532.22 6160.280000000001 1531.67 6160.510000000001ZM1536.42 6160.4C1537.5700000000002 6160.08 1538.77 6159.95 1539.95 6159.79C1539.51 6161.28 1539.06 6162.7699999999995 1538.64 6164.2699999999995C1539.72 6162.7699999999995 1540.6000000000001 6161.049999999999 1542.15 6159.959999999999C1542.51 6159.719999999999 1543.16 6159.5199999999995 1543.43 6159.969999999999C1543.91 6160.679999999999 1543.4 6161.629999999999 1542.8600000000001 6162.119999999999C1542.2600000000002 6162.359999999999 1541.96 6161.639999999999 1541.7900000000002 6161.189999999999C1540.8300000000002 6161.609999999999 1540.3300000000002 6162.609999999999 1539.7200000000003 6163.399999999999C1538.5300000000002 6164.939999999999 1537.8900000000003 6166.799999999998 1537.4200000000003 6168.659999999999C1536.9000000000003 6168.659999999999 1536.3800000000003 6168.659999999999 1535.8600000000004 6168.659999999999C1536.1700000000003 6167.439999999999 1536.7000000000003 6166.289999999999 1537.1000000000004 6165.0999999999985C1537.2700000000004 6163.5999999999985 1538.0500000000004 6162.199999999999 1538.0000000000005 6160.6799999999985C1537.4700000000005 6160.589999999998 1536.9400000000005 6160.489999999999 1536.4200000000005 6160.399999999999ZM1544.2 6160.55C1545.3 6160.04 1546.55 6160.01 1547.73 6159.75C1547.34 6161.06 1546.96 6162.37 1546.6 6163.69C1547.48 6162.2699999999995 1548.3999999999999 6160.7699999999995 1549.9199999999998 6159.94C1550.57 6159.49 1551.6799999999998 6159.66 1551.84 6160.54C1552.04 6161.78 1551.4299999999998 6162.95 1551.25 6164.15C1552.22 6162.5199999999995 1553.22 6160.759999999999 1554.97 6159.839999999999C1555.51 6159.549999999999 1556.29 6159.69 1556.56 6160.259999999999C1556.94 6161.659999999999 1556.09 6162.909999999999 1555.8999999999999 6164.239999999999C1555.6699999999998 6165.439999999999 1555.1999999999998 6166.5999999999985 1555.06 6167.819999999999C1555.74 6167.489999999999 1556.26 6166.939999999999 1556.77 6166.3899999999985C1556.84 6166.439999999999 1557 6166.539999999998 1557.07 6166.579999999998C1556.3 6167.649999999998 1555.35 6169.109999999998 1553.79 6168.779999999998C1553.55 6168.589999999998 1553.3799999999999 6168.289999999998 1553.45 6167.979999999998C1553.79 6166.119999999998 1554.43 6164.329999999998 1554.89 6162.5099999999975C1555.0200000000002 6161.9699999999975 1555.0600000000002 6161.409999999997 1555.0700000000002 6160.859999999998C1553.9800000000002 6160.929999999998 1553.2700000000002 6161.879999999998 1552.64 6162.659999999998C1551.8600000000001 6163.829999999998 1551.0700000000002 6165.039999999998 1550.63 6166.389999999998C1550.3600000000001 6167.139999999998 1550.17 6167.909999999998 1549.92 6168.659999999998C1549.39 6168.659999999998 1548.88 6168.669999999998 1548.3700000000001 6168.669999999998C1548.6200000000001 6167.199999999998 1549.3700000000001 6165.879999999998 1549.6000000000001 6164.399999999998C1549.8100000000002 6163.189999999998 1550.5000000000002 6161.939999999998 1550.0800000000002 6160.699999999998C1549.5400000000002 6160.909999999998 1549.0400000000002 6161.229999999998 1548.66 6161.679999999998C1547.66 6162.7599999999975 1546.75 6163.9699999999975 1546.23 6165.359999999998C1545.73 6166.419999999998 1545.53 6167.579999999998 1545.1 6168.659999999998C1544.6 6168.649999999998 1544.11 6168.649999999998 1543.61 6168.629999999998C1544.1799999999998 6166.479999999999 1544.9799999999998 6164.3899999999985 1545.5 6162.219999999998C1545.53 6161.789999999998 1545.98 6161.199999999998 1545.59 6160.809999999999C1545.1999999999998 6160.489999999999 1544.6499999999999 6160.619999999999 1544.1999999999998 6160.549999999998ZM1559.15 6160.3C1560.3100000000002 6160.08 1561.49 6159.99 1562.63 6159.71C1562.16 6161.42 1561.66 6163.13 1561.19 6164.85C1560.94 6165.870000000001 1560.39 6166.860000000001 1560.56 6167.9400000000005C1561.26 6167.63 1561.81 6167.070000000001 1562.21 6166.42C1562.29 6166.4400000000005 1562.47 6166.4800000000005 1562.55 6166.49C1562.28 6167.3099999999995 1561.59 6167.9 1560.95 6168.44C1560.3 6168.95 1559.42 6168.79 1558.71 6168.49C1558.8500000000001 6167.179999999999 1559.21 6165.91 1559.69 6164.679999999999C1560 6163.429999999999 1560.4 6162.2 1560.72 6160.95C1560.58 6160.82 1560.44 6160.69 1560.3 6160.55C1559.9099999999999 6160.570000000001 1559.54 6160.610000000001 1559.1499999999999 6160.650000000001C1559.1499999999999 6160.56 1559.1499999999999 6160.39 1559.1499999999999 6160.3ZM1572.56 6160.89C1573.4099999999999 6160.240000000001 1574.3999999999999 6159.54 1575.54 6159.740000000001C1576.1599999999999 6159.870000000001 1576.53 6160.420000000001 1576.82 6160.920000000001C1576.8999999999999 6160.620000000001 1576.98 6160.330000000001 1577.06 6160.030000000001C1577.6299999999999 6159.950000000001 1578.2 6159.81 1578.77 6159.7300000000005C1578.27 6161.47 1577.69 6163.1900000000005 1577.21 6164.9400000000005C1576.8700000000001 6165.900000000001 1576.5900000000001 6166.870000000001 1576.56 6167.89C1577.29 6167.700000000001 1577.77 6167.08 1578.24 6166.530000000001C1578.35 6166.620000000001 1578.46 6166.700000000001 1578.58 6166.790000000001C1578.05 6167.4400000000005 1577.56 6168.160000000001 1576.82 6168.600000000001C1576.27 6168.840000000001 1575.6399999999999 6168.740000000002 1575.06 6168.8200000000015C1574.94 6167.950000000002 1575.05 6167.0700000000015 1575.26 6166.220000000001C1574.41 6167.170000000001 1573.6299999999999 6168.300000000001 1572.37 6168.710000000001C1571.7299999999998 6168.760000000001 1570.9599999999998 6168.980000000001 1570.4099999999999 6168.560000000001C1569.6699999999998 6167.850000000001 1569.4799999999998 6166.750000000001 1569.6699999999998 6165.780000000002C1570.06 6163.9000000000015 1571.1399999999999 6162.190000000001 1572.56 6160.890000000001C1573.98 6159.600000000001 1572.56 6160.890000000001 1572.56 6160.890000000001ZM1572.7 6162.23C1571.95 6163.48 1571.25 6164.889999999999 1571.3700000000001 6166.4C1571.3400000000001 6166.87 1571.46 6167.54 1572.0100000000002 6167.679999999999C1572.7000000000003 6167.799999999999 1573.4500000000003 6167.5599999999995 1573.9100000000003 6167.03C1575.4500000000003 6165.5 1576.7600000000002 6163.37 1576.3100000000004 6161.13C1576.2000000000005 6160.5 1575.5100000000004 6160.1 1574.9000000000003 6160.36C1573.9300000000003 6160.599999999999 1573.1900000000003 6161.4 1572.7000000000003 6162.23ZM1586.3 6159.82C1587.43 6160.41 1588.73 6160.299999999999 1589.97 6160.33C1589.8700000000001 6160.67 1589.77 6161.0199999999995 1589.68 6161.36C1589.13 6161.37 1588.5900000000001 6161.38 1588.05 6161.389999999999C1588.1599999999999 6162.079999999999 1588.3 6162.829999999999 1587.98 6163.49C1587.38 6164.63 1586.29 6165.5599999999995 1584.97 6165.69C1583.89 6165.82 1582.75 6166.12 1582.02 6166.969999999999C1583.3899999999999 6167.9 1585.12 6167.829999999999 1586.62 6168.4C1588.1499999999999 6168.969999999999 1588.1 6171.32 1586.76 6172.049999999999C1585.92 6172.48 1585.04 6172.919999999999 1584.07 6172.949999999999C1582.55 6173.039999999999 1580.85 6173.129999999999 1579.54 6172.229999999999C1578.98 6171.879999999998 1578.68 6171.169999999998 1578.86 6170.529999999999C1579.25 6169.529999999999 1580.2299999999998 6168.979999999999 1581.1399999999999 6168.509999999998C1581.02 6168.109999999999 1580.8 6167.689999999999 1580.87 6167.269999999999C1581.2299999999998 6166.539999999999 1582.03 6166.199999999999 1582.7299999999998 6165.859999999999C1581.6399999999999 6165.469999999998 1580.5099999999998 6164.569999999999 1580.61 6163.289999999999C1580.53 6162.239999999999 1581.2199999999998 6161.359999999999 1581.9699999999998 6160.719999999999C1583.1499999999999 6159.719999999999 1584.8299999999997 6159.499999999999 1586.2999999999997 6159.82ZM1581.97 6160.72C1582.72 6160.08 1581.97 6160.72 1581.97 6160.72ZM1584.48 6160.24C1583.21 6160.54 1582.58 6161.87 1582.39 6163.05C1582.23 6163.83 1582.4 6164.89 1583.24 6165.21C1584.02 6165.66 1584.89 6165.06 1585.52 6164.62C1586.23 6163.69 1586.62 6162.42 1586.35 6161.26C1586.24 6160.39 1585.2199999999998 6160.110000000001 1584.48 6160.24C1583.73 6160.38 1584.48 6160.24 1584.48 6160.24ZM1581.71 6168.73C1580.49 6168.99 1579.6000000000001 6170.83 1580.5900000000001 6171.78C1581.5600000000002 6172.49 1582.88 6172.38 1584.0200000000002 6172.32C1584.8400000000001 6172.24 1585.7600000000002 6172.049999999999 1586.3200000000002 6171.389999999999C1586.7100000000003 6170.929999999999 1586.63 6170.0599999999995 1586.0300000000002 6169.829999999999C1584.8700000000001 6169.409999999999 1583.65 6169.189999999999 1582.4700000000003 6168.849999999999C1582.2200000000003 6168.789999999999 1581.9700000000003 6168.7 1581.7100000000003 6168.73ZM1592.93 6160.9C1593.88 6160.139999999999 1595.0700000000002 6159.65 1596.3 6159.73C1597.02 6159.709999999999 1597.86 6160.03 1598.1399999999999 6160.74C1598.4799999999998 6161.71 1597.8 6162.57 1597.1299999999999 6163.17C1595.6699999999998 6164.33 1593.77 6164.8 1591.9299999999998 6164.89C1591.9399999999998 6165.62 1591.7899999999997 6166.450000000001 1592.2799999999997 6167.06C1592.9999999999998 6167.84 1594.2699999999998 6168.1 1595.2099999999998 6167.59C1596.0099999999998 6167.27 1596.6599999999999 6166.71 1597.3999999999999 6166.27C1597.4199999999998 6166.360000000001 1597.4799999999998 6166.540000000001 1597.4999999999998 6166.63C1596.5099999999998 6167.47 1595.4799999999998 6168.38 1594.1799999999998 6168.71C1593.1399999999999 6168.82 1591.9299999999998 6169.01 1591.06 6168.28C1590.3 6167.49 1589.9199999999998 6166.36 1590.1399999999999 6165.29C1590.5099999999998 6163.56 1591.4699999999998 6161.92 1592.9299999999998 6160.9C1594.3999999999999 6159.879999999999 1592.9299999999998 6160.9 1592.9299999999998 6160.9ZM1594.48 6160.64C1593.16 6161.4800000000005 1592.3700000000001 6162.92 1591.97 6164.400000000001C1593.83 6164.31 1595.94 6163.51 1596.7 6161.660000000001C1596.8300000000002 6161.210000000001 1596.81 6160.490000000001 1596.25 6160.340000000001C1595.65 6160.260000000001 1595 6160.300000000001 1594.48 6160.640000000001ZM1623.43 6159.78C1623.96 6159.5 1624.54 6159.96 1624.63 6160.469999999999C1624.69 6161.389999999999 1624.2900000000002 6162.23 1624.0300000000002 6163.089999999999C1623.6900000000003 6164.599999999999 1623.1100000000001 6166.049999999999 1622.88 6167.589999999999C1624.47 6167.869999999999 1625.3400000000001 6166.279999999999 1626.14 6165.219999999999C1627.3700000000001 6163.679999999999 1627.96 6161.789999999999 1628.5200000000002 6159.94C1629.0100000000002 6159.95 1629.5100000000002 6159.95 1630.0100000000002 6159.96C1629.4800000000002 6161.95 1628.9000000000003 6163.93 1628.3000000000002 6165.91C1628.0900000000001 6166.5599999999995 1627.9800000000002 6167.24 1627.92 6167.92C1628.66 6167.75 1629.1200000000001 6167.13 1629.53 6166.53C1629.61 6166.55 1629.77 6166.59 1629.86 6166.61C1629.3999999999999 6167.48 1628.7299999999998 6168.24 1627.87 6168.74C1627.4299999999998 6168.7 1626.76 6169.04 1626.4499999999998 6168.58C1626.2399999999998 6168.33 1626.2699999999998 6167.99 1626.34 6167.7C1626.6 6166.5599999999995 1626.9499999999998 6165.44 1627.28 6164.3099999999995C1626.19 6165.73 1625.3899999999999 6167.419999999999 1623.86 6168.44C1623.28 6168.91 1622.49 6168.73 1621.81 6168.82C1621.62 6168.44 1621.36 6168.049999999999 1621.37 6167.61C1621.6599999999999 6165.259999999999 1622.78 6163.07 1622.9399999999998 6160.7C1622.2499999999998 6160.86 1621.82 6161.429999999999 1621.4099999999999 6161.96C1621.33 6161.94 1621.1699999999998 6161.9 1621.09 6161.88C1621.6699999999998 6161.01 1622.37 6160.06 1623.4299999999998 6159.78ZM1632.49 6162.21C1632.35 6160.94 1633.5 6159.7300000000005 1634.76 6159.72C1635.42 6159.64 1635.99 6159.9800000000005 1636.61 6160.08C1637.1299999999999 6160.2 1637.56 6159.87 1638.01 6159.68C1637.81 6160.6900000000005 1637.6 6161.6900000000005 1637.39 6162.6900000000005C1637.26 6162.6900000000005 1637.1200000000001 6162.6900000000005 1636.99 6162.6900000000005C1636.84 6162.040000000001 1636.91 6161.22 1636.35 6160.750000000001C1635.73 6160.100000000001 1634.73 6160.330000000001 1633.9599999999998 6160.510000000001C1633.9499999999998 6161.050000000001 1633.7599999999998 6161.680000000001 1634.1 6162.160000000001C1634.9399999999998 6163.340000000001 1636.2099999999998 6164.300000000001 1636.59 6165.750000000001C1637.05 6166.970000000001 1636.05 6168.060000000001 1635.07 6168.620000000001C1633.57 6169.210000000001 1631.9399999999998 6168.200000000001 1630.45 6168.790000000001C1630.6000000000001 6167.77 1630.79 6166.750000000001 1630.98 6165.740000000001C1631.1100000000001 6165.72 1631.24 6165.700000000001 1631.3700000000001 6165.68C1631.5400000000002 6166.58 1631.6100000000001 6167.77 1632.5600000000002 6168.2300000000005C1633.3500000000001 6168.320000000001 1634.6900000000003 6168.64 1635.0100000000002 6167.6C1635.4500000000003 6166.67 1634.8400000000001 6165.780000000001 1634.2800000000002 6165.08C1633.5800000000002 6164.2 1632.6100000000001 6163.4 1632.4900000000002 6162.21ZM1645.94 6159.76C1646.73 6159.900000000001 1647.41 6160.650000000001 1647.19 6161.4800000000005C1647.1100000000001 6162.320000000001 1646.43 6162.9400000000005 1645.8 6163.43C1644.36 6164.37 1642.6599999999999 6164.83 1640.95 6164.900000000001C1640.97 6165.330000000001 1641.03 6166.170000000001 1641.06 6166.59C1641.3799999999999 6167.58 1642.55 6167.96 1643.49 6167.82C1644.59 6167.5199999999995 1645.53 6166.86 1646.51 6166.299999999999C1646.07 6167.249999999999 1645.08 6167.779999999999 1644.22 6168.299999999999C1643.3500000000001 6168.9 1642.23 6168.799999999999 1641.23 6168.779999999999C1639.99 6168.629999999999 1639.16 6167.3499999999985 1639.19 6166.159999999999C1639.02 6164.059999999999 1640.28 6162.089999999999 1641.94 6160.8899999999985C1642.10849 6160.7664399999985 1642.2425700000001 6160.668119999998 1642.34751 6160.591159999998C1643.39639 6159.897249999998 1644.68764 6159.583609999998 1645.94 6159.759999999998ZM1643.01 6161C1641.91 6161.85 1641.35 6163.12 1640.98 6164.41C1642.63 6164.25 1644.52 6163.73 1645.43 6162.22C1645.94 6161.72 1645.71 6161.02 1645.69 6160.41C1644.76 6160.29 1643.69 6160.25 1643.01 6161ZM1650.4 6159.8C1650.91 6159.54 1651.3200000000002 6159.97 1651.75 6160.13C1651.71 6161.53 1651.1 6162.79 1650.8 6164.13C1650.51 6165.24 1650.21 6166.34 1649.85 6167.4400000000005C1650.3 6167.490000000001 1650.82 6167.700000000001 1651.2199999999998 6167.39C1652.4199999999998 6166.5 1653.2299999999998 6165.21 1653.9999999999998 6163.97C1654.7099999999998 6162.7 1655.0899999999997 6161.29 1655.6099999999997 6159.95C1656.1099999999997 6159.94 1656.6199999999997 6159.95 1657.1299999999997 6159.94C1656.3999999999996 6162.0599999999995 1655.8599999999997 6164.24 1655.2299999999996 6166.389999999999C1655.0899999999995 6166.9 1654.9699999999996 6167.41 1654.9699999999996 6167.929999999999C1655.7699999999995 6167.659999999999 1656.1799999999996 6166.879999999999 1656.7899999999995 6166.36C1656.8599999999994 6167.2699999999995 1656.0299999999995 6167.839999999999 1655.4299999999996 6168.38C1654.9599999999996 6168.82 1654.2499999999995 6168.75 1653.6699999999996 6168.87C1653.5399999999995 6168.53 1653.3299999999997 6168.18 1653.4099999999996 6167.8C1653.5999999999997 6166.71 1653.9799999999996 6165.66 1654.1699999999996 6164.570000000001C1653.1499999999996 6165.870000000001 1652.3899999999996 6167.420000000001 1650.9899999999996 6168.370000000001C1650.3699999999997 6168.800000000001 1649.4699999999996 6169.000000000001 1648.7799999999995 6168.670000000001C1648.2199999999996 6168.130000000001 1648.4399999999996 6167.210000000001 1648.5699999999995 6166.540000000001C1649.0499999999995 6164.650000000001 1649.7999999999995 6162.810000000001 1649.9699999999996 6160.850000000001C1649.8799999999997 6160.830000000001 1649.6899999999996 6160.780000000002 1649.5999999999997 6160.750000000001C1649.1899999999996 6161.150000000001 1648.7799999999997 6161.560000000001 1648.4099999999996 6161.990000000001C1648.3199999999997 6161.960000000001 1648.1499999999996 6161.910000000001 1648.0599999999997 6161.880000000001C1648.6599999999996 6161.040000000001 1649.3599999999997 6160.110000000001 1650.3999999999996 6159.800000000001ZM1658.66 6160.37C1659.78 6160.13 1660.93 6160.01 1662.0500000000002 6159.76C1661.7200000000003 6161.12 1661.2500000000002 6162.4400000000005 1660.89 6163.8C1661.8600000000001 6162.400000000001 1662.65 6160.76 1664.25 6159.96C1664.73 6159.77 1665.35 6159.6 1665.81 6159.92C1666.1499999999999 6160.11 1666.44 6160.47 1666.26 6160.91C1666.26 6162.03 1665.77 6163.08 1665.55 6164.17C1666.5 6162.78 1667.32 6161.25 1668.6499999999999 6160.17C1669.1 6159.85 1669.6699999999998 6159.71 1670.2199999999998 6159.7300000000005C1670.7799999999997 6159.85 1671.1699999999998 6160.450000000001 1671.0699999999997 6161.030000000001C1671.1299999999997 6162.02 1670.5999999999997 6162.900000000001 1670.4099999999996 6163.85C1670.1099999999997 6165.150000000001 1669.7199999999996 6166.42 1669.3699999999997 6167.71C1670.2299999999996 6167.69 1670.6699999999996 6166.84 1671.1799999999996 6166.28C1671.2299999999996 6166.44 1671.4399999999996 6166.61 1671.3199999999997 6166.78C1670.8199999999997 6167.46 1670.2399999999998 6168.09 1669.5799999999997 6168.61C1669.0599999999997 6168.86 1668.4599999999998 6168.74 1667.9099999999996 6168.719999999999C1667.8699999999997 6168.089999999999 1667.8399999999997 6167.449999999999 1668.0399999999997 6166.839999999999C1668.4199999999998 6165.669999999999 1668.6699999999998 6164.469999999999 1669.0199999999998 6163.289999999999C1669.2799999999997 6162.489999999999 1669.3499999999997 6161.649999999999 1669.4099999999999 6160.8099999999995C1668.7699999999998 6161.009999999999 1668.1299999999999 6161.32 1667.6899999999998 6161.839999999999C1666.0099999999998 6163.8099999999995 1664.9699999999998 6166.199999999999 1664.1899999999998 6168.65C1663.6799999999998 6168.65 1663.1799999999998 6168.67 1662.6799999999998 6168.67C1663.0299999999997 6167.09 1663.7799999999997 6165.63 1664.0199999999998 6164.02C1664.1599999999999 6162.96 1665.0499999999997 6161.77 1664.4099999999999 6160.71C1663.29 6161.19 1662.4499999999998 6162.13 1661.7799999999997 6163.12C1660.6699999999998 6164.8 1660.0299999999997 6166.73 1659.5299999999997 6168.66C1658.9999999999998 6168.66 1658.4799999999998 6168.66 1657.9599999999998 6168.66C1658.6599999999999 6166.0199999999995 1659.6799999999998 6163.45 1660.0799999999997 6160.73C1659.6099999999997 6160.639999999999 1659.1299999999997 6160.61 1658.6499999999996 6160.599999999999C1658.6499999999996 6160.539999999999 1658.6599999999996 6160.429999999999 1658.6599999999996 6160.37Z " fill="#03463e" fill-opacity="1" transform="matrix(1,0,0,1,-1431,-6078)"></path></svg>