<svg id="SvgjsSvg1029" xmlns="http://www.w3.org/2000/svg" version="1.1" xmlns:xlink="http://www.w3.org/1999/xlink" xmlns:svgjs="http://svgjs.com/svgjs" width="59" height="59" viewBox="0 0 59 59"><title>megaphone</title><desc>Created with Avocode.</desc><defs id="SvgjsDefs1030"><linearGradient id="SvgjsLinearGradient1032" gradientUnits="userSpaceOnUse" x1="1314.3565187752663" y1="1254.36" x2="1314.3565187752663" y2="1196.9994219339278"><stop id="SvgjsStop1033" stop-opacity="1" stop-color="#57d781" offset="0"></stop><stop id="SvgjsStop1034" stop-opacity="1" stop-color="#25adff" offset="1"></stop></linearGradient></defs><path id="SvgjsPath1031" d="M1340.68 1234.29C1340.78 1233.86 1340.65 1233.42 1340.3400000000001 1233.1L1306.9700000000003 1199.6599999999999C1306.7300000000002 1199.4199999999998 1306.4000000000003 1199.2799999999997 1306.0600000000002 1199.2799999999997C1305.9700000000003 1199.2799999999997 1305.88 1199.2899999999997 1305.7800000000002 1199.3099999999997C1305.3600000000001 1199.4099999999996 1305.0100000000002 1199.7299999999998 1304.8700000000001 1200.1399999999996L1292.17 1237.2999999999997L1286.0800000000002 1243.3999999999996C1285.5900000000001 1243.8899999999996 1285.5900000000001 1244.6999999999996 1286.0800000000002 1245.1999999999996L1294.91 1254.0499999999995C1295.1100000000001 1254.2499999999995 1295.44 1254.3599999999994 1295.8100000000002 1254.3599999999994C1296.18 1254.3599999999994 1296.5200000000002 1254.2499999999995 1296.7100000000003 1254.0499999999995L1302.8000000000002 1247.9499999999996L1304.1800000000003 1247.4599999999996L1304.3200000000004 1247.7399999999996C1305.8300000000004 1250.9899999999996 1309.4100000000003 1253.0799999999995 1313.4400000000003 1253.0799999999995C1319.7000000000003 1253.0799999999995 1322.3000000000002 1249.9399999999994 1323.8600000000004 1247.1999999999994C1325.0500000000004 1245.1199999999994 1325.4300000000003 1242.8499999999995 1324.9500000000003 1240.6499999999994L1324.8900000000003 1240.3499999999995L1339.8500000000004 1235.2099999999994C1340.2700000000004 1235.0599999999993 1340.5800000000004 1234.7199999999993 1340.6800000000003 1234.2899999999993ZM1295.81 1251.35L1288.78 1244.3L1293.28 1239.79L1300.31 1246.84ZM1322.55 1241.63C1322.55 1247.6100000000001 1317.6699999999998 1249.63 1316.68 1249.97C1315.6000000000001 1250.3600000000001 1314.5 1250.54 1313.43 1250.54C1310.5900000000001 1250.54 1308.01 1249.25 1306.78 1246.99L1306.58 1246.63L1322.55 1241.15ZM1302.44 1245.38L1294.73 1237.65L1300.06 1222.0700000000002L1302.11 1224.13C1302.31 1224.3200000000002 1302.6399999999999 1224.44 1303.01 1224.44C1303.01 1224.44 1303.01 1224.44 1303.02 1224.44C1303.3799999999999 1224.44 1303.72 1224.3200000000002 1303.91 1224.13C1304.4 1223.64 1304.4 1222.8300000000002 1303.91 1222.3200000000002L1300.98 1219.38L1302.39 1215.2700000000002L1309.42 1222.3100000000002C1309.6000000000001 1222.4900000000002 1309.94 1222.6100000000001 1310.3000000000002 1222.6200000000001C1310.67 1222.6200000000001 1311.0200000000002 1222.5100000000002 1311.2200000000003 1222.3100000000002C1311.7100000000003 1221.8200000000002 1311.7100000000003 1221.0100000000002 1311.2100000000003 1220.5100000000002L1303.3200000000002 1212.5900000000001L1306.63 1202.89L1337.14 1233.46ZM1321.1 1206.44C1321.09 1206.78 1321.2099999999998 1207.1000000000001 1321.4499999999998 1207.3500000000001C1321.6799999999998 1207.5900000000001 1321.9899999999998 1207.7300000000002 1322.33 1207.7400000000002H1322.37C1323.05 1207.7400000000002 1323.62 1207.1900000000003 1323.6299999999999 1206.5100000000002L1323.85 1198.3100000000002C1323.86 1197.9700000000003 1323.74 1197.64 1323.5 1197.4C1323.27 1197.15 1322.96 1197.01 1322.62 1197C1322.28 1196.99 1321.9599999999998 1197.11 1321.7199999999998 1197.34C1321.4699999999998 1197.57 1321.3299999999997 1197.8899999999999 1321.3199999999997 1198.23ZM1336.87 1203.14C1336.62 1202.9 1336.3 1202.7800000000002 1335.9699999999998 1202.7800000000002C1335.6499999999999 1202.7800000000002 1335.3199999999997 1202.9 1335.0699999999997 1203.15L1329.2799999999997 1208.94C1328.7899999999997 1209.44 1328.7899999999997 1210.25 1329.2899999999997 1210.75C1329.7399999999998 1211.2 1330.6999999999998 1211.13 1331.0799999999997 1210.75L1336.8699999999997 1204.95C1337.3599999999997 1204.46 1337.3599999999997 1203.65 1336.8699999999997 1203.14ZM1343 1217.43C1342.98 1216.72 1342.41 1216.18 1341.7 1216.19L1333.51 1216.41C1332.82 1216.43 1332.27 1217.02 1332.28 1217.72C1332.3 1218.41 1332.86 1218.95 1333.55 1218.95H1333.6L1341.77 1218.73C1342.11 1218.72 1342.42 1218.58 1342.65 1218.34C1342.88 1218.09 1343.01 1217.77 1343 1217.4299999999998Z " fill="url(#SvgjsLinearGradient1032)" transform="matrix(1,0,0,1,-1285,-1196)"></path></svg>