<svg id="SvgjsSvg1041" xmlns="http://www.w3.org/2000/svg" version="1.1" xmlns:xlink="http://www.w3.org/1999/xlink" xmlns:svgjs="http://svgjs.com/svgjs" width="51" height="51" viewBox="0 0 51 51"><title>pencil</title><desc>Created with Avocode.</desc><defs id="SvgjsDefs1042"><linearGradient id="SvgjsLinearGradient1044" gradientUnits="userSpaceOnUse" x1="1026.145" y1="1563.43" x2="1026.145" y2="1513.1699999999998"><stop id="SvgjsStop1045" stop-opacity="1" stop-color="#57d781" offset="0"></stop><stop id="SvgjsStop1046" stop-opacity="1" stop-color="#25adff" offset="1"></stop></linearGradient></defs><path id="SvgjsPath1043" d="M1013.34 1549.35L1029.43 1533.24L1031.2 1535.01L1015.11 1551.1299999999999ZM1041.24 1536.39L1028.06 1523.18L1004.5699999999999 1546.69L1004.2099999999999 1547.06L1004.0099999999999 1548.08L1001.0499999999998 1563.4299999999998L1016.3799999999999 1560.4599999999998L1017.3999999999999 1560.2699999999998L1017.7599999999999 1559.8999999999999ZM1004.21 1560.27L1004.85 1556.92L1007.5500000000001 1559.6200000000001ZM1010.52 1559.05L1005.43 1553.95L1006.15 1550.22L1014.24 1558.33ZM1016.79 1557.33L1007.14 1547.6699999999998L1028.06 1526.7199999999998L1037.7 1536.3899999999999ZM1035.32 1515.9L1032.1799999999998 1519.0400000000002L1045.37 1532.2500000000002L1048.51 1529.1100000000001C1052.15 1525.47 1052.15 1519.5400000000002 1048.51 1515.9C1044.8799999999999 1512.26 1038.96 1512.26 1035.32 1515.9ZM1046.74 1527.34L1045.3700000000001 1528.7099999999998L1035.72 1519.0399999999997L1037.09 1517.6699999999998C1038.3799999999999 1516.3799999999999 1040.1 1515.6699999999998 1041.9199999999998 1515.6699999999998C1043.7399999999998 1515.6699999999998 1045.4499999999998 1516.3799999999999 1046.7399999999998 1517.6699999999998C1048.0299999999997 1518.9599999999998 1048.7399999999998 1520.6799999999998 1048.7399999999998 1522.4999999999998C1048.7399999999998 1524.3299999999997 1048.0299999999997 1526.0399999999997 1046.7399999999998 1527.3399999999997ZM1029.27 1522.32L1031.04 1520.55L1043.87 1533.3999999999999L1042.1 1535.1699999999998ZM1039 1551V1548H1042V1551ZM1043 1555V1552H1046V1555ZM1039 1560V1557H1042V1560ZM1035 1555V1552H1037V1555ZM1039 1555V1552H1042V1555Z " fill="url(#SvgjsLinearGradient1044)" transform="matrix(1,0,0,1,-1001,-1513)"></path></svg>