<svg id="SvgjsSvg1035" xmlns="http://www.w3.org/2000/svg" version="1.1" xmlns:xlink="http://www.w3.org/1999/xlink" xmlns:svgjs="http://svgjs.com/svgjs" width="62" height="51" viewBox="0 0 62 51"><title>Shape 6</title><desc>Created with Avocode.</desc><defs id="SvgjsDefs1036"><linearGradient id="SvgjsLinearGradient1038" gradientUnits="userSpaceOnUse" x1="465.96450000000004" y1="1564" x2="465.96450000000004" y2="1513.75"><stop id="SvgjsStop1039" stop-opacity="1" stop-color="#57d781" offset="0"></stop><stop id="SvgjsStop1040" stop-opacity="1" stop-color="#25adff" offset="1"></stop></linearGradient></defs><path id="SvgjsPath1037" d="M445.007 1553.53C439.664 1553.53 435.286 1549.21 435.23900000000003 1543.86V1523.4499999999998C435.25600000000003 1520.84 436.28900000000004 1518.3999999999999 438.148 1516.5699999999997C439.992 1514.7499999999998 442.42900000000003 1513.7599999999998 445.01700000000005 1513.7599999999998C445.03900000000004 1513.7599999999998 445.06100000000004 1513.7599999999998 445.08200000000005 1513.7599999999998H483.14400000000006C483.17300000000006 1513.7599999999998 483.20000000000005 1513.7499999999998 483.22900000000004 1513.7499999999998C488.57200000000006 1513.7499999999998 492.95300000000003 1518.0799999999997 493.00000000000006 1523.4199999999998V1529.36C493.00000000000006 1530.02 492.4630000000001 1530.56 491.79900000000004 1530.56C491.136 1530.56 490.59900000000005 1530.02 490.59900000000005 1529.36V1523.4499999999998C490.56500000000005 1519.3899999999999 487.23600000000005 1516.11 483.15500000000003 1516.1499999999999H445.093C443.098 1516.1499999999999 441.237 1516.8899999999999 439.834 1518.2699999999998C438.431 1519.6499999999999 437.651 1521.4999999999998 437.638 1523.4599999999998V1543.8299999999997C437.655 1545.7999999999997 438.43899999999996 1547.6499999999996 439.846 1549.0199999999998C441.236 1550.3899999999996 443.07 1551.1399999999996 445.017 1551.1399999999996C445.038 1551.1399999999996 445.061 1551.1399999999996 445.082 1551.1299999999997H472.072C472.735 1551.1299999999997 473.272 1551.6699999999996 473.272 1552.3299999999997C473.272 1552.9899999999998 472.735 1553.5299999999997 472.072 1553.5299999999997H445.093C445.064 1553.5299999999997 445.036 1553.5299999999997 445.007 1553.5299999999997ZM464.119 1559.47C463.45700000000005 1559.47 462.92 1558.94 462.92 1558.28V1553.18C462.92 1552.52 463.457 1551.98 464.119 1551.98C464.781 1551.98 465.31800000000004 1552.52 465.31800000000004 1553.18V1558.28C465.31800000000004 1558.94 464.78100000000006 1559.47 464.119 1559.47ZM472.533 1560.32H452.01300000000003C451.35100000000006 1560.32 450.814 1559.79 450.814 1559.12C450.814 1558.4599999999998 451.351 1557.9299999999998 452.01300000000003 1557.9299999999998H472.533C473.196 1557.9299999999998 473.733 1558.4599999999998 473.733 1559.12C473.733 1559.79 473.196 1560.32 472.533 1560.32ZM471.5 1545.02H436.863C436.201 1545.02 435.664 1544.49 435.664 1543.83C435.664 1543.1699999999998 436.20099999999996 1542.6299999999999 436.863 1542.6299999999999H471.5C472.164 1542.6299999999999 472.701 1543.1699999999998 472.701 1543.83C472.701 1544.49 472.16400000000004 1545.02 471.5 1545.02ZM494.567 1564H477.959C476.79 1564 475.836 1563.05 475.836 1561.88V1536.1200000000001C475.836 1534.95 476.79 1534.0000000000002 477.959 1534.0000000000002H494.567C495.737 1534.0000000000002 496.69 1534.9500000000003 496.69 1536.1200000000001V1561.88C496.69 1563.0500000000002 495.737 1564 494.567 1564ZM478.237 1561.61H494.29V1536.3899999999999H478.237ZM495.49 1558.48H477.03700000000003C476.37300000000005 1558.48 475.836 1557.94 475.836 1557.28C475.836 1556.62 476.373 1556.09 477.03700000000003 1556.09H495.49C496.153 1556.09 496.69 1556.62 496.69 1557.28C496.69 1557.94 496.153 1558.48 495.49 1558.48ZM495.49 1540.07H477.03700000000003C476.37300000000005 1540.07 475.836 1539.54 475.836 1538.8799999999999C475.836 1538.2199999999998 476.373 1537.6799999999998 477.03700000000003 1537.6799999999998H495.49C496.153 1537.6799999999998 496.69 1538.2199999999998 496.69 1538.8799999999999C496.69 1539.54 496.153 1540.07 495.49 1540.07Z " fill="url(#SvgjsLinearGradient1038)" transform="matrix(1,0,0,1,-435,-1513)"></path></svg>